<svg width="23" height="23" viewBox="0 0 23 23" fill="none" xmlns="http://www.w3.org/2000/svg">
<g id="cart-commerce-and-shopping-svgrepo-com 1" clip-path="url(#clip0_78_1291)">
<g id="Group">
<g id="Group_2">
<path id="Vector" d="M3.00002 0H0V1.49999H3.00002V0Z" fill="white"/>
</g>
</g>
<g id="Group_3">
<g id="Group_4">
<path id="Vector_2" d="M11.5 21.5H9V23H11.5V21.5Z" fill="white"/>
</g>
</g>
<g id="Group_5">
<g id="Group_6">
<path id="Vector_3" d="M20 21.5H17.5V23H20V21.5Z" fill="white"/>
</g>
</g>
<g id="Group_7">
<g id="Group_8">
<path id="Vector_4" d="M21.5 19H20V21.5H21.5V19Z" fill="white"/>
</g>
</g>
<g id="Group_9">
<g id="Group_10">
<path id="Vector_5" d="M17.5 17.5H11.5H9.00002H7.50003V21.5H9.00002V19H11.5V21.5H13V19H16V21.5H17.5V19H20V17.5H17.5Z" fill="white"/>
</g>
</g>
<g id="Group_11">
<g id="Group_12">
<path id="Vector_6" d="M4.50002 4.00004V1.5H3.00003V5.50002H4.50002V10H6V17.5H7.49999V16H20V14.5H21.5V10H23V4.00004H4.50002ZM17 10.5H14.5V13H13V10.5H10.5001V9.00002H13V6.50003H14.5V9.00002H17V10.5Z" fill="white"/>
</g>
</g>
</g>
<defs>
<clipPath id="clip0_78_1291">
<rect width="23" height="23" fill="white"/>
</clipPath>
</defs>
</svg>
