<svg width="42" height="43" viewBox="0 0 42 43" fill="none" xmlns="http://www.w3.org/2000/svg">
<g id="Group">
<g id="Group_2">
<path id="Vector" d="M38.5375 5.60873V2.80432H35.725V0H5.72449V2.80432H2.91197V5.60864H0.0993652V26.1739H2.91189V31.7826H5.72441V34.5869H8.53693V37.3913H11.3495V40.1956H16.9746V43H24.4747V40.1957H30.0998V37.3914H32.9123V34.587H35.7248V31.7827H38.5374V26.174H41.3499V5.60873H38.5375ZM32.9125 15.8913H30.1V18.6956H27.2874V21.5H24.4749V24.3043H21.6622V27.1086H18.8497V29.913H15.0996V27.1086H12.2871V24.3043H9.47458V18.6956H15.0997V21.5H18.8498V18.6957H21.6623V15.8914H24.4748V13.087H27.2874V10.2827H32.9125V15.8913Z" fill="black"/>
</g>
</g>
</svg>
