<svg width="46" height="38" viewBox="0 0 46 38" fill="none" xmlns="http://www.w3.org/2000/svg">
<g id="Group 4">
<g id="Group">
<g id="Group_2">
<path id="Vector" d="M2.99997 0H0V32H2.99997V0Z" fill="black"/>
</g>
</g>
<g id="Group 3">
<g id="Group_3">
<g id="Group_4">
<path id="Vector_2" d="M46 0H43V26H46V0Z" fill="black"/>
</g>
</g>
<g id="Group_5">
<g id="Group_6">
<path id="Vector_3" d="M9.99997 0H7V26H9.99997V0Z" fill="black"/>
</g>
</g>
<g id="Group_7">
<g id="Group_8">
<path id="Vector_4" d="M9.99997 28.9999H7V31.9999H9.99997V28.9999Z" fill="black"/>
</g>
</g>
<g id="Group_9">
<g id="Group_10">
<path id="Vector_5" d="M17 0H14V12H17V0Z" fill="black"/>
</g>
</g>
<g id="Group_11">
<g id="Group_12">
<path id="Vector_6" d="M17 28.9999H14V31.9999H17V28.9999Z" fill="black"/>
</g>
</g>
<g id="Group_13">
<g id="Group_14">
<path id="Vector_7" d="M25 0H22V6.00004H25V0Z" fill="black"/>
</g>
</g>
<g id="Group_15">
<g id="Group_16">
<path id="Vector_8" d="M32 0H29V6.00004H32V0Z" fill="black"/>
</g>
</g>
<g id="Group_17">
<g id="Group_18">
<path id="Vector_9" d="M39 0H36V6.00004H39V0Z" fill="black"/>
</g>
</g>
<g id="Group_19">
<g id="Group_20">
<path id="Vector_10" d="M43 32.0001V29.0001H40V15H37V12H34.0001V9.00006H22.9999V12H20V15H17V26H20V29H22.9999V32H36.9999V34.9999H39.9999V37.9999H45.9999V31.9999H43V32.0001ZM34 26H22.9999V15H34V26Z" fill="black"/>
</g>
</g>
</g>
</g>
</svg>
