<svg width="49" height="49" viewBox="0 0 49 49" fill="none" xmlns="http://www.w3.org/2000/svg">
<g id="apple-black-logo-svgrepo-com 1" clip-path="url(#clip0_42_69)">
<path id="Vector" d="M37.8723 26.0322C37.9412 33.4475 44.3775 35.9151 44.4488 35.9465C44.3944 36.1205 43.4204 39.463 41.0578 42.9156C39.0155 45.9007 36.8959 48.8746 33.5569 48.9362C30.2759 48.9967 29.2209 46.9907 25.4698 46.9907C21.7199 46.9907 20.5477 48.8747 17.4419 48.9968C14.2189 49.1188 11.7645 45.769 9.70532 42.7949C5.49745 36.7114 2.28176 25.6044 6.59961 18.107C8.74463 14.3838 12.5779 12.026 16.7387 11.9656C19.9036 11.9052 22.8908 14.0948 24.8257 14.0948C26.7593 14.0948 30.3895 11.4616 34.2058 11.8483C35.8035 11.9148 40.2882 12.4937 43.1678 16.7088C42.9357 16.8527 37.8167 19.8327 37.8723 26.0322ZM31.7062 7.82359C33.4173 5.75233 34.569 2.86895 34.2548 0C31.7883 0.0991313 28.8058 1.64358 27.0367 3.71371C25.4512 5.54689 24.0627 8.48102 24.4373 11.2932C27.1865 11.5059 29.995 9.89616 31.7062 7.82359Z" fill="black"/>
</g>
<defs>
<clipPath id="clip0_42_69">
<rect width="49" height="49" fill="white"/>
</clipPath>
</defs>
</svg>
