<svg width="63" height="63" viewBox="0 0 63 63" fill="none" xmlns="http://www.w3.org/2000/svg">
<g id="asus-rog-1-logo-svgrepo-com 1">
<path id="Vector" fill-rule="evenodd" clip-rule="evenodd" d="M37.848 17.6937C37.7496 17.7225 37.7242 17.7666 37.6267 17.85C37.5482 17.9171 37.4819 17.9647 37.4058 18.0303C37.2314 18.1804 37.1292 18.2733 36.9759 18.4022C36.2151 19.0422 35.1829 20.0393 34.4371 20.7376C33.2802 21.821 32.2375 22.8642 31.1276 23.9416C29.0344 25.9736 26.6623 28.4134 24.5672 30.3723C22.8358 31.9912 21.3508 33.4451 19.5415 35.0635C18.85 35.682 18.4144 36.2454 17.4729 36.278C15.9192 36.3316 13.8697 35.0091 12.8216 34.4077C11.9057 33.8823 9.47304 32.4517 8.30031 32.412L9.15951 33.5923C9.77386 34.5297 10.8068 36.5715 11.3029 37.5651C13.0072 40.9784 15.3081 44.5527 18.2366 46.9303C18.9854 47.5382 19.6638 48.0492 20.6149 48.6247C21.0321 48.8771 21.4577 49.087 21.9243 49.3512C22.0861 49.4427 23.2078 49.9665 23.346 49.9662C23.0388 49.6584 22.7228 49.2822 22.4732 48.9887C21.3583 47.6776 18.8782 45.1284 18.1333 43.8273C17.5078 42.7349 17.3641 42.0659 18.0591 40.9694C18.8537 39.716 20.7066 38.1649 21.8689 37.1708C24.6976 34.7514 27.2485 32.5602 30.2081 30.2633C31.6104 29.1749 33.0684 28.0647 34.5765 26.9886C36.0559 25.933 37.5429 24.9161 39.0873 23.8952L41.4194 22.4112C41.6357 22.2871 43.7597 21.0225 43.7937 20.9802L45.872 19.8336C46.5701 19.4393 47.2479 19.1101 47.9871 18.7121C50.1561 17.544 54.4637 15.6403 56.9321 14.7695C57.7424 14.4836 58.5145 14.2136 59.3341 13.9336L61.7904 13.1642C61.5916 13.062 58.8776 13.0339 58.3776 13.0338C56.3652 13.0335 55.1306 13.0896 53.2095 13.2414C51.7391 13.3576 49.003 13.6594 47.6659 13.9827C47.4252 14.0408 47.1402 14.0657 46.8979 14.1295C46.4343 14.2517 45.9036 14.3357 45.4288 14.4539C44.4498 14.6976 43.561 14.9738 42.6409 15.2482C41.6938 15.5305 40.8372 15.8652 39.9899 16.2138C39.4894 16.4197 37.9766 17.4311 37.848 17.6938L37.848 17.6937ZM57.504 22.5547L59.2901 21.6426C59.9097 21.3476 60.5505 21.0084 61.134 20.7233C62.318 20.1447 63 18.27 62.9827 17.0682C62.7737 17.077 61.9231 17.4802 61.6922 17.5647C61.5334 17.6228 61.3869 17.6728 61.2381 17.736C60.1833 18.1842 58.7751 18.7142 57.7753 19.186C57.4849 19.3231 57.2043 19.4364 56.9105 19.5624C56.6798 19.6614 56.1712 19.8609 56.0764 19.9786C55.759 19.9625 49.2965 23.165 48.4909 23.5816C47.344 24.1746 45.9017 24.8855 44.7993 25.4988C44.6688 25.5714 41.3081 27.3501 41.1742 27.5213C40.9529 27.5583 38.6494 28.9262 38.2817 29.1337C33.7235 31.7057 28.6753 34.9413 24.3092 37.9025C23.0958 38.7255 21.546 39.8052 20.3265 40.7241L19.3475 41.4548C19.235 41.5406 19.1023 41.5974 19.0374 41.7262C19.4727 42.1008 22.3563 43.289 23.0443 43.5369C26.9053 44.9285 30.5192 45.898 34.5816 46.5953L37.1597 46.9896L39.1904 47.1687L37.5365 47.0228C37.8521 47.0587 38.1654 47.11 38.4725 47.1394C38.9267 47.1828 39.3773 47.2198 39.8451 47.2667C40.7261 47.3551 41.7492 47.4153 42.6549 47.4313C43.7809 47.451 44.4013 47.5085 45.3244 47.1187C46.04 46.8165 46.6225 46.4406 47.1913 46.0046C49.3101 44.3809 51.1951 41.8415 52.6989 39.5432C54.2727 37.138 55.6902 34.4506 56.9121 31.7882C57.5344 30.4322 58.1182 29.0174 58.668 27.5761C58.9467 26.8456 59.1883 26.1401 59.44 25.365C59.5793 24.9358 60.0864 23.3692 60.125 23.0191C59.547 23.0981 49.4415 28.5504 48.4799 29.0666C47.1758 29.7668 45.9271 30.496 44.6618 31.1832C43.4322 31.8511 42.1316 32.6404 40.9081 33.3203C38.4223 34.7019 35.9189 36.2409 33.4366 37.6782C33.0109 37.9246 29.85 39.7725 29.7364 39.9024C29.9489 39.8683 39.9706 35.5645 40.2133 35.4642C40.6859 35.2688 50.5257 31.0464 50.6871 31.0393C50.6305 31.2668 50.0215 32.4039 49.8677 32.7381C49.6115 33.2949 49.3026 33.9287 49.0227 34.4825C47.436 37.6214 45.7139 41.3905 42.2495 42.7818L42.0413 42.9067C41.8557 42.911 41.3485 43.1171 41.1248 43.1786C40.7881 43.271 40.4626 43.3352 40.1232 43.4047C38.5264 43.7317 36.1125 43.5612 34.4485 43.3009C32.551 43.004 31.2223 42.6709 29.383 42.2263C28.944 42.1202 25.7705 41.2287 25.5872 41.1076C25.6905 40.9274 27.5055 39.7644 27.6643 39.654C31.176 37.2131 37.0091 33.6263 40.8027 31.468C41.2042 31.2395 41.5773 31.032 41.9444 30.8216C42.2496 30.6467 42.8082 30.3551 43.0547 30.176L44.8297 29.2024C45.4298 28.8695 45.9809 28.581 46.6131 28.2202C47.8082 27.5383 49.0191 26.9666 50.1954 26.304C50.3684 26.2066 57.0856 22.6768 57.5038 22.5548L57.504 22.5547ZM11.8407 40.9794C11.7709 40.8311 10.558 39.5441 10.317 39.2751C8.7873 37.5671 7.30438 35.9761 5.76694 34.1817C4.69584 32.9316 3.74171 31.7798 2.83141 30.6753C2.45048 30.2132 0.360115 27.5892 0.0407627 27.0541C-1.9595e-05 27.157 0.526225 29.308 0.603937 29.5906C0.723086 30.0242 0.815264 30.4193 0.936811 30.8617C2.12466 35.1864 3.31171 36.823 7.40208 38.9131C7.90594 39.1705 11.5687 40.9421 11.8407 40.9794Z" fill="#E50007"/>
</g>
</svg>
