<svg width="43" height="53" viewBox="0 0 43 53" fill="none" xmlns="http://www.w3.org/2000/svg">
<g id="msi-gaming 1" clip-path="url(#clip0_44_80)">
<g id="Group">
<path id="Vector" d="M19.1589 1.93685C21.1914 1.93092 23.224 1.93573 25.2565 1.93442C24.7899 2.39802 24.3552 2.89239 23.8862 3.35371C22.4746 3.36193 21.0619 3.35483 19.6504 3.35716V6.82517H23.1263V5.7581H21.8161C21.3836 5.32409 20.9511 4.89027 20.5212 4.45509C22.027 4.45266 23.534 4.45509 25.041 4.45383C25.041 5.24828 25.0398 6.04263 25.0421 6.83708C24.6473 7.23902 24.2468 7.63493 23.8557 8.0393C23.7483 8.13066 23.6518 8.28349 23.488 8.24685C22.0458 8.24928 20.6024 8.24797 19.1603 8.24685C18.7125 7.76784 18.2236 7.33043 17.7664 6.86317C17.6992 5.71548 17.744 4.55 17.7451 3.39628C18.1775 2.87703 18.6983 2.4336 19.1589 1.93685ZM14.5637 4.16109C15.3284 3.91806 16.0907 3.66551 16.8673 3.46276C16.694 3.84925 16.5196 4.23573 16.3476 4.62353C15.8255 4.78472 15.3047 4.94601 14.7817 5.10254C14.7792 5.89563 14.8158 6.68765 14.817 7.48088C15.2376 7.3469 15.6606 7.22113 16.086 7.09916C16.086 6.85963 16.0848 6.62015 16.0871 6.38188C15.9198 6.4245 15.7537 6.46721 15.5875 6.50983C15.4202 6.25611 15.254 6.00118 15.0973 5.74274C15.6558 5.56605 16.2202 5.40364 16.7858 5.24473C16.813 5.80791 16.8482 6.37235 16.8106 6.93553C16.6845 7.32319 16.483 7.68003 16.3228 8.05475C15.7595 8.21006 15.1998 8.37966 14.6426 8.55505C14.467 8.25992 14.2042 8.00732 14.0888 7.68246C14.0899 6.89389 14.0146 6.10313 14.0687 5.31588C14.202 4.91865 14.3952 4.54412 14.5637 4.16109ZM26.5809 3.85518C27.5082 4.06151 28.4155 4.35319 29.3251 4.62469C29.106 4.81796 28.8773 4.99937 28.6523 5.18544C28.1244 5.04801 27.606 4.87953 27.0769 4.74803C26.9925 4.86869 26.9097 4.99044 26.8284 5.11323C26.899 5.25902 26.9697 5.40607 27.0416 5.55312C27.606 5.72627 28.1727 5.8862 28.7349 6.06882C28.8727 6.55614 29.0789 7.02796 29.1603 7.52957C29.033 7.87937 28.8586 8.21021 28.709 8.55038C27.8017 8.2883 26.879 8.08206 25.9624 7.85682C26.1497 7.60665 26.3406 7.35885 26.5327 7.11106C27.0748 7.24616 27.6178 7.3814 28.1552 7.53798C28.1952 7.46795 28.2753 7.32688 28.3153 7.25695C28.2519 7.08978 28.1858 6.92373 28.1233 6.75894C27.5861 6.58341 27.0453 6.42095 26.4997 6.2775C26.3053 5.82939 26.1084 5.38119 25.9188 4.93066C26.1437 4.57488 26.3711 4.22038 26.5809 3.85518ZM12.907 4.59145C13.1073 4.531 13.3112 4.47171 13.5126 4.41126C13.5929 5.86239 13.5387 7.31842 13.6199 8.77081C13.4514 8.8147 13.2842 8.85974 13.1191 8.90246C12.6632 8.21006 12.166 7.546 11.7136 6.85132C11.7371 7.67181 11.7124 8.49231 11.7595 9.31154C11.5463 9.63286 11.3565 9.96846 11.1408 10.2861C11.1056 8.60724 11.0972 6.92829 11.0431 5.25071C11.195 5.19142 11.3471 5.1333 11.5002 5.07518C11.9893 5.73677 12.4452 6.42328 12.9296 7.08851C12.9624 6.25495 12.8858 5.42386 12.907 4.59145ZM29.7044 4.73131C30.6542 5.03723 31.5956 5.36928 32.5218 5.74274C32.2885 5.91351 32.0552 6.08418 31.823 6.25499C31.3588 6.09137 30.8982 5.91701 30.4315 5.76058C30.4055 6.04866 30.3891 6.338 30.3655 6.62607C30.99 6.84894 31.6133 7.07773 32.2284 7.32911C31.9491 7.51422 31.7146 7.78208 31.4024 7.90182C31.0348 7.79636 30.6849 7.63503 30.3196 7.52121C30.303 7.75715 30.2877 7.99192 30.2819 8.22785C30.9252 8.40926 31.5473 8.65948 32.1812 8.87175C31.8514 9.05423 31.5521 9.57367 31.1291 9.36014C30.5811 9.17523 30.0285 9.00446 29.4736 8.83967C29.5419 7.47024 29.635 6.10085 29.7044 4.73131ZM9.86941 5.72617C10.0952 5.6359 10.3219 5.54775 10.5493 5.46171C10.5469 6.89758 10.62 8.33102 10.6058 9.76557C10.389 10.0823 10.1817 10.4059 9.96136 10.7201C9.94837 9.05549 9.92016 7.38966 9.86941 5.72617ZM32.9719 5.89208C33.6941 6.16718 34.3928 6.5075 35.0822 6.85841C35.1881 7.27814 35.2965 7.69669 35.4073 8.11647C35.2553 8.34637 35.108 8.57764 34.9595 8.80886C35.0926 9.0637 35.2552 9.3044 35.3636 9.57236C35.3742 10.0147 35.3213 10.4545 35.3153 10.8967C35.1079 10.7971 34.9006 10.7012 34.6944 10.6027C34.7097 10.1996 34.8559 9.75143 34.5849 9.39809C34.4209 8.92739 33.8955 8.84803 33.5031 8.65229C33.4619 9.10054 33.4761 9.54986 33.4548 9.99801C33.2864 10.3169 33.013 10.5636 32.7998 10.8529C32.8482 9.19894 32.9329 7.54609 32.9719 5.89208ZM33.5586 6.92606C33.5563 7.20106 33.5363 7.475 33.5292 7.75C33.8651 7.96699 34.2539 8.09027 34.6179 8.25633C34.6604 8.10111 34.7947 7.95284 34.7346 7.78441C34.6556 7.21297 33.9734 7.15961 33.5586 6.92606ZM8.65584 6.26792C8.87731 6.16723 9.10009 6.06761 9.3263 5.9763C9.35576 7.37892 9.35576 8.7816 9.4053 10.1842C9.19587 10.2719 8.98692 10.3609 8.77845 10.4509C8.78434 9.59491 8.79376 8.7365 8.70423 7.88408C8.5734 8.68203 8.30126 9.44674 8.11041 10.2305C7.97963 10.2957 7.84922 10.3617 7.71918 10.4285C7.48239 9.88891 7.28449 9.33176 7.02046 8.80527C6.97328 9.63884 7.10643 10.4759 7.01694 11.3069C6.85675 11.6377 6.65995 11.9508 6.4844 12.2733C6.43606 10.6881 6.41365 9.10054 6.40303 7.51529C6.57384 7.33271 6.83197 7.24966 7.04292 7.11689C7.33611 7.76424 7.61071 8.42112 7.86995 9.0827C8.17275 8.15675 8.38133 7.20233 8.65584 6.26792ZM35.9764 7.31254C36.1896 7.42392 36.403 7.53429 36.6197 7.64222C36.6103 8.89896 36.5055 10.1534 36.5007 11.4101C36.2766 11.6091 36.0392 11.7925 35.7902 11.9591C35.8409 10.4106 35.8917 8.85979 35.9764 7.31254ZM3.98163 8.80172C4.43052 8.46267 4.91838 8.17809 5.39673 7.88408C5.5747 8.18878 5.91521 8.44964 5.86687 8.83967C5.84572 9.78341 5.90932 10.7249 5.89749 11.6687C5.7019 11.7789 5.5051 11.8868 5.31082 11.9982C5.30367 11.6201 5.27774 11.243 5.26832 10.8659C4.89255 11.0865 4.51421 11.3035 4.14897 11.5418C4.17012 11.907 4.21846 12.2758 4.16901 12.6396C4.01587 13.0096 3.79435 13.3463 3.59518 13.6913C3.60108 12.4665 3.5481 11.2418 3.54457 10.0194C3.65401 9.60443 3.78957 9.18471 3.98163 8.80172ZM4.11719 9.63291C4.13124 9.96127 4.1537 10.2885 4.16066 10.6181C4.52484 10.3762 4.90066 10.1522 5.27769 9.93163C5.24707 9.59374 5.24123 9.25459 5.2435 8.91548C4.86531 9.15147 4.48596 9.38385 4.11719 9.63291ZM37.2112 7.93734C38.0301 8.30137 38.8232 8.7211 39.6173 9.13718C39.3534 9.26173 39.1024 9.45505 38.8126 9.49174C38.4661 9.3424 38.1374 9.15623 37.8004 8.98896C37.7803 9.24511 37.765 9.50233 37.7615 9.76091C38.3046 9.97775 38.822 10.2554 39.3662 10.4724C39.0741 10.6442 38.7784 10.8102 38.4767 10.9632C38.2328 10.8434 37.9842 10.7344 37.7368 10.6265C37.7238 10.8197 37.7144 11.0141 37.706 11.2074C38.2599 11.4469 38.8148 11.6911 39.3498 11.9721C39.0882 12.1037 38.8267 12.2342 38.565 12.3669C38.069 12.1357 37.5635 11.9282 37.0568 11.7232C37.1275 10.4616 37.157 9.19894 37.2112 7.93734ZM40.1122 9.33409C40.7485 9.67548 41.3824 10.0265 41.9915 10.4165C41.7842 10.5422 41.5802 10.6715 41.3776 10.8018C41.0453 10.6193 40.7237 10.4165 40.3772 10.2613C40.3301 10.4699 40.3584 10.6821 40.4162 10.886C40.8733 11.0828 41.3246 11.2928 41.7665 11.5215C41.8407 11.9032 41.9256 12.2839 42.0069 12.6657C41.8479 12.9858 41.6899 13.3048 41.5286 13.6237C40.9041 13.3 40.2631 13.0107 39.6303 12.706C39.853 12.5553 40.0769 12.406 40.3067 12.2649C40.6684 12.4369 41.0278 12.6158 41.3882 12.7914C41.4577 12.5886 41.4083 12.3847 41.3588 12.1867C40.9075 11.9555 40.4434 11.7492 39.9802 11.5453C39.8895 11.2002 39.7787 10.8588 39.7175 10.5066C39.8189 10.1059 39.9908 9.72772 40.1122 9.33409ZM1.43303 10.4817C1.95735 10.0491 2.56073 9.71712 3.1404 9.36262C2.92946 9.80606 2.96234 10.4582 2.46632 10.6988C2.17057 10.8743 1.88182 11.0628 1.59201 11.2478C1.58969 11.9342 1.65218 12.6196 1.61326 13.306C1.91843 13.1139 2.24359 12.9539 2.54045 12.7487C2.55245 12.55 2.54972 12.3507 2.53229 12.1524C2.44748 12.1962 2.27773 12.2864 2.19162 12.3315C2.06567 12.1323 1.93842 11.9342 1.81344 11.7362C2.23519 11.473 2.65708 11.2087 3.09549 10.9727C3.08477 11.4885 3.11553 12.0054 3.08366 12.5212C3.00001 12.884 2.84441 13.2255 2.7302 13.58C2.30835 13.804 1.89954 14.0507 1.48127 14.2819C1.33277 14.0162 1.07121 13.7815 1.08309 13.4554C1.05236 12.8255 1.04998 12.1945 1.07594 11.5644C1.16789 11.1956 1.28689 10.8315 1.43303 10.4817ZM20.6531 10.7023C20.8698 10.892 21.0348 11.1304 21.2139 11.3544C22.4488 12.8626 23.9734 14.1549 25.7408 14.9849C26.2922 15.2481 26.8767 15.4651 27.4904 15.5102C27.9784 15.5517 28.4166 15.2338 28.9068 15.285C29.3168 15.3228 29.7268 15.4841 30.0391 15.7592C30.2052 16.2073 30.2334 16.7326 30.5928 17.0859C30.8615 17.4072 31.3092 17.4001 31.6851 17.3289C31.7747 17.5851 31.8983 17.8969 32.2071 17.9372C32.4958 17.9443 32.7574 17.776 33.0343 17.7036C33.2157 17.9586 33.3359 18.2929 33.647 18.4198C34.255 18.7139 34.7323 19.2473 35.0091 19.8615C34.6532 19.4644 34.2879 19.06 33.793 18.8359C33.7789 19.6078 33.8838 20.5124 33.3089 21.123C33.2877 20.6334 33.2381 20.1389 33.0249 19.692C32.5865 20.0524 32.1729 20.5005 31.5921 20.6109C31.7688 20.3689 32.0257 20.1651 32.1059 19.8639C32.1507 19.6315 31.8784 19.5912 31.717 19.5556C31.0324 19.449 30.4491 19.8888 29.9084 20.2398C29.8235 19.9966 29.7375 19.7548 29.655 19.5118C29.3062 19.6221 28.9021 19.6968 28.6653 20.0061C28.5203 20.2765 28.8008 20.4982 29.0117 20.6085C29.3723 20.8149 29.7989 20.663 30.1865 20.7472C30.4375 20.8065 30.5906 21.0341 30.7544 21.2168C30.7638 21.0307 30.7768 20.8456 30.7933 20.6608C31.2423 21.1611 31.617 21.7243 31.9563 22.3053C32.3934 22.0965 32.622 21.6614 32.5866 21.1776C32.7634 21.4966 32.7716 21.863 32.7599 22.2187C32.8673 22.0867 32.9801 21.9594 33.0981 21.8369C33.1546 22.3705 33.1652 22.9432 32.9178 23.4339C32.7199 23.8146 32.3498 24.0671 31.9551 24.2082C32.04 23.8953 32.2226 23.3878 31.7937 23.2514C31.0466 23.1056 30.3173 23.4281 29.5773 23.4874C29.9956 23.2514 30.4787 23.0392 30.7285 22.6017C30.7108 22.5483 30.6731 22.4404 30.6554 22.387C30.2607 22.1428 29.7941 22.0397 29.3664 21.8654C29.1166 21.7421 28.8833 21.9234 28.6559 22.0077C28.2283 21.7681 27.6886 21.7291 27.2608 21.9899C26.1933 22.731 24.3894 21.665 24.6662 20.3407C24.856 19.6209 25.6276 19.3696 26.2239 19.084C25.6783 18.9641 25.0386 19.0638 24.6533 19.5001C24.3374 19.8321 24.2197 20.2897 24.1407 20.7285C22.1023 20.12 19.9108 20.0135 17.8229 20.4095C15.7869 20.7901 13.8497 21.8062 12.4711 23.3748C11.0608 24.9601 10.2018 26.9815 9.77412 29.0494C9.25922 31.5226 9.64571 34.1608 10.8074 36.3981C11.1032 37.0182 11.4955 37.5814 11.8537 38.1658C10.13 36.7491 8.95294 34.7666 8.16102 32.6965C7.90646 32.9929 7.9266 33.3996 7.86884 33.7635C7.30916 32.9016 7.39638 31.8131 7.55184 30.8445C7.88772 29.0802 8.48038 27.3752 9.20387 25.7366C8.60064 26.09 8.1587 26.6425 7.66272 27.1216C7.64268 25.3526 8.66419 23.8326 9.71279 22.5034C10.3561 21.6853 11.1185 20.975 11.8585 20.2471C11.2576 20.4107 10.6979 20.6881 10.1159 20.9052C11.3282 19.6448 12.9142 18.7972 14.5474 18.2209C16.1392 17.6814 17.8148 17.3792 19.495 17.3352C18.5935 17.1277 17.6745 16.9628 16.7483 16.9333L16.5834 17.0495C16.5799 16.9831 16.5716 16.9037 16.6552 16.8871C18.3637 16.4614 20.1594 16.3594 21.8032 15.6872C22.2039 15.5272 22.5749 15.2983 22.9095 15.0256C23.613 15.5046 24.347 16.0904 25.2402 16.0833C23.8499 14.9605 22.4523 13.7902 21.4639 12.2774C21.1302 11.7896 20.811 11.2786 20.6531 10.7023ZM28.4366 16.4219C28.7996 16.9116 29.2462 17.4795 29.9343 17.3918C29.8436 17.144 29.8105 16.8417 29.5891 16.6709C29.2072 16.576 28.8126 16.538 28.4366 16.4219Z" fill="white"/>
<path id="Vector_2" d="M19.1955 12.8874C20.336 13.4969 21.3764 14.29 22.5595 14.8283C22.2731 15.0607 21.9102 15.4841 21.5131 15.2173C20.5906 14.6161 19.8742 13.7447 19.1955 12.8874ZM5.67954 18.1387C6.5891 17.8079 7.7085 18.5441 7.73565 19.5236C7.64254 19.5331 7.45636 19.5508 7.3633 19.5603C7.31853 20.2882 7.64601 20.9831 8.02782 21.5806C8.07143 20.9226 7.95601 20.223 8.28465 19.6184C8.50501 19.6291 8.71364 19.6919 8.90324 19.808C9.15901 19.6503 9.10245 19.3042 8.95047 19.0908C8.77724 18.856 8.5592 18.6615 8.38133 18.4327C8.83727 18.7113 9.30278 19.0268 9.59616 19.4867C9.76939 19.7962 9.81184 20.261 9.53367 20.5242C9.34981 20.7269 8.95516 20.5147 8.83979 20.8077C8.63116 21.2274 8.70649 21.7288 8.88562 22.1462C9.33451 22.0561 9.65035 21.7063 10.0592 21.5308C9.26274 22.3572 8.50501 23.2452 8.05844 24.3194C8.05139 23.9993 8.20458 23.6163 7.98194 23.3412C7.55537 22.9465 6.91441 22.9762 6.44905 22.6488C6.17682 22.4497 6.02363 22.1391 5.79858 21.8971C5.61357 21.711 5.25064 21.7881 5.12696 21.5378C5.07046 21.1217 5.1117 20.619 4.76529 20.3143C4.39773 20.0155 3.88866 20.0736 3.44678 20.0333C4.1749 19.642 5.13522 19.8471 5.67606 20.4625C5.93173 20.7506 5.9 21.213 6.22275 21.4525C6.55747 21.6872 6.90968 21.9244 7.31506 22.0168C7.41044 21.4395 6.87438 21.092 6.70119 20.5976C6.49725 20.0878 6.3995 19.4676 6.68588 18.9698C6.74596 18.8073 6.93098 18.5998 6.73065 18.4623C6.44065 18.2133 6.02943 18.2289 5.67954 18.1387ZM16.3794 21.5035C16.4969 21.4581 16.6169 21.4193 16.7387 21.3874C15.868 22.19 15.2424 23.2038 14.5507 24.1559C14.3162 24.5045 14.0099 24.8756 14.0875 25.3297C14.0958 25.4695 14.1525 25.7281 14.3481 25.6249C14.7781 25.3984 15.0184 24.9503 15.3224 24.5886C15.5298 25.2633 16.1626 25.6628 16.7906 25.8845C17.8627 26.2853 19.0234 26.1431 20.1298 26.0044C22.2484 25.7056 24.421 25.1672 26.1779 23.882C26.6621 23.556 26.992 23.0591 27.4481 22.7034C27.3326 23.2441 26.9415 23.6603 26.5798 24.0515C25.3332 25.2752 23.6812 25.9818 22.0198 26.43C20.4244 26.8497 18.7749 27.0287 17.1299 27.0821C16.747 27.1213 16.317 27.1401 16.007 27.3987C15.7974 27.5646 15.9917 27.8291 16.1531 27.944C16.7317 28.3626 17.3868 28.6721 18.0631 28.8973C19.7457 29.4818 21.579 29.2245 23.2511 28.7373C24.4011 28.4088 25.4674 27.8587 26.5338 27.3299C25.2389 28.5369 23.5373 29.221 21.8207 29.5423C19.4924 29.9395 17.0769 29.6028 14.8723 28.7871C14.6333 28.7124 14.2643 28.6471 14.13 28.9246C13.9533 29.3549 14.328 29.7284 14.4954 30.0936C15.1563 31.4003 16.0258 32.6737 17.3031 33.4349C17.7946 33.7442 18.3519 33.9161 18.9057 34.0716C17.9784 34.1024 17.1099 33.6911 16.3218 33.244C14.7299 32.3061 13.6836 30.677 13.0272 28.9816C13.1474 31.226 14.5531 33.1634 16.1744 34.6039C16.1827 34.8589 15.8786 34.8624 15.6996 34.9251C14.9585 35.1185 14.0759 35.1078 13.5009 35.6793C12.9978 36.5389 12.9955 37.6143 12.4452 38.4549C11.452 36.7156 10.8239 34.7747 10.5305 32.7934C10.164 30.2217 10.6825 27.522 12.0588 25.3155C13.0885 23.6555 14.6214 22.3311 16.3794 21.5035Z" fill="white"/>
<path id="Vector_3" d="M26.6187 25.753C27.1901 25.4351 27.6767 24.9953 28.2069 24.6171C28.0726 24.9704 27.7581 25.1993 27.4929 25.4494C25.1387 27.5813 21.882 28.4468 18.7678 28.3827C18.1904 28.3412 17.5318 28.3329 17.0723 27.9286C16.971 27.6251 17.3834 27.5883 17.5824 27.6014C20.6707 27.7425 23.9133 27.3643 26.6187 25.753ZM25.4745 28.9993C26.5644 28.9056 27.7038 29.0739 28.6876 29.5719C29.6349 30.0497 30.3561 30.9271 30.6812 31.9397C30.0945 31.4263 29.2096 31.2353 28.4649 31.4333C28.4296 31.6729 28.5026 31.9005 28.6191 32.1091C27.6106 32.2301 26.5632 31.8437 25.9552 31.0077C26.397 31.2092 26.8589 31.4832 27.3655 31.3835C27.7662 31.3017 28.1973 31.1286 28.4177 30.761C28.5638 30.4801 28.2834 30.2335 28.0842 30.0805C27.2973 29.5435 26.3689 29.2874 25.4745 28.9993ZM14.9443 29.3052C15.1517 29.3301 15.4003 29.3158 15.5405 29.5067C16.4631 30.6936 17.9383 31.2805 19.3723 31.5389C20.4658 31.7642 21.5851 31.789 22.6974 31.7571C20.8675 32.2278 18.8633 32.1377 17.1172 31.3835C16.3347 31.0456 15.603 30.5394 15.1011 29.8386C14.9821 29.6869 14.9833 29.4842 14.9443 29.3052Z" fill="white"/>
<path id="Vector_4" d="M25.4192 31.7879C25.0844 31.2437 24.9702 30.5502 25.1317 29.9312C25.2412 30.6403 25.4946 31.3741 26.072 31.8354C26.7848 32.4211 27.7603 32.5444 28.6512 32.4733C29.9095 32.3488 31.1726 32.1164 32.4416 32.2219C33.032 32.2823 33.5268 32.6866 33.8037 33.2001C34.0523 33.6709 34.3057 34.1533 34.4329 34.6739C34.5366 35.3034 34.0029 35.7622 33.872 36.3397C33.627 37.3202 33.6294 38.3635 33.2334 39.305C33.0024 39.8599 32.4863 40.2155 32.1765 40.7183C31.5885 41.6526 31.3092 42.7375 31.0841 43.8081C30.977 44.3096 30.7732 44.8384 30.316 45.1172C29.4948 45.627 28.4861 45.6614 27.6318 46.0964C26.8059 46.4806 26.1556 47.1327 25.4345 47.6722C24.8687 48.0954 24.1065 48.1049 23.4584 47.8879C22.9306 47.7077 22.3627 47.5998 21.8135 47.7516C21.3186 47.8025 20.8556 48.1487 20.3513 48.0172C19.7092 47.8203 19.6515 46.9891 19.0846 46.6975C18.5084 46.4058 17.8498 46.4024 17.2277 46.2885C16.939 46.241 16.6433 46.0892 16.5137 45.813C16.344 45.4135 16.3618 44.9522 16.1484 44.5706C15.6347 43.7618 14.5272 43.5971 14.0617 42.7434C13.8308 42.3402 13.8944 41.8577 14.0488 41.4404C14.2126 40.9876 14.2597 40.4196 13.925 40.0307C13.5515 39.618 12.9612 39.5446 12.438 39.5007C12.9977 38.7277 13.3158 37.8124 13.5126 36.884C13.6198 36.3339 13.9344 35.7741 14.5059 35.6165C15.2859 35.3971 16.2155 35.0769 16.9637 35.5477C17.8333 36.2378 17.6872 37.6985 16.9484 38.4337C16.4288 38.8451 15.6417 38.9802 15.0443 38.6648C14.6802 38.4668 14.6402 38.0116 14.6979 37.644C14.9536 37.8194 15.1421 38.1135 15.4661 38.1716C15.723 38.1076 16.1 37.9629 16.0894 37.6451C15.9268 37.1863 15.366 36.8649 14.903 37.0831C14.3892 37.3298 13.8613 37.759 13.7859 38.3625C13.799 39.0395 14.507 39.4071 15.1056 39.4247C16.0894 39.4295 16.9461 38.8296 17.6354 38.1786C17.5022 40.0874 17.6164 42.1019 18.512 43.8294C18.9561 44.7092 19.8092 45.3246 20.7577 45.5438C22.6641 45.9968 24.6613 45.6695 26.4924 45.0459C27.5928 44.6806 28.6616 44.165 29.5488 43.4038C29.9884 43.0018 30.3182 42.4978 30.641 41.9999C31.5 40.6234 32.1728 39.1341 32.7089 37.6023C33.0682 36.496 33.3321 35.2405 32.8621 34.1272C32.5415 33.3613 31.6897 33.0387 30.9262 32.9438C29.9634 32.7861 29.0079 33.1715 28.0465 33.0209C27.8556 33.3506 27.8662 33.8343 28.2303 34.0382C28.8689 34.3916 29.6301 34.3014 30.3311 34.3442C29.0281 34.8682 27.4939 35.0768 26.1802 34.4734C25.0148 33.973 24.1299 32.9237 23.7364 31.7226C24.2855 32.5241 24.8581 33.4122 25.8054 33.7727C26.2544 33.9197 26.8235 34.0299 27.2311 33.724C27.4938 33.4549 27.2004 33.1111 27.0672 32.8574C26.4208 32.7009 25.7809 32.3689 25.4192 31.7879ZM34.2067 33.3744C34.4035 33.2285 34.6415 33.1562 34.8666 33.065C34.7734 33.2843 34.6863 33.5558 34.4283 33.6222C34.255 33.6387 34.1808 33.5557 34.2067 33.3744ZM34.0983 36.4619C34.4789 36.3137 34.8936 36.4334 35.2906 36.38C35.0008 36.6847 34.5542 37 34.1243 36.7961C34.1151 36.6848 34.1064 36.5733 34.0983 36.4619Z" fill="white"/>
<path id="Vector_5" d="M19.3545 37.6462C19.893 37.2265 20.607 37.1329 21.2691 37.1032C20.7767 37.2704 20.1817 37.3914 19.9602 37.9331C20.1545 38.1987 20.6505 38.0292 20.7389 38.3682C20.7519 39.0832 20.1792 39.5965 19.966 40.2369C20.5493 39.8326 21.2103 39.459 21.5826 38.8295C21.684 38.635 21.3835 38.5734 21.2975 38.4584C21.6039 37.9592 22.2224 37.7813 22.7751 37.7943C23.1969 37.7813 23.6553 37.9212 23.9075 38.284C23.4985 38.1903 23.0508 37.8608 22.6372 38.1062C22.5347 38.3931 22.5983 38.718 22.4782 39.0049C22.2296 39.7021 21.5898 40.1704 20.924 40.4276C20.6847 40.5249 20.3585 40.7394 20.4457 41.0406C20.8627 41.0655 21.2869 41.1142 21.7029 41.0489C22.1482 40.979 22.3579 40.4846 22.794 40.3957C23.5834 40.1799 24.5342 40.5106 24.9432 41.2446C24.5225 41.0395 24.103 40.6849 23.6046 40.7822C23.1121 40.8901 22.9082 41.3999 22.6136 41.7509C22.3473 41.8208 22.087 41.6572 21.8207 41.694C21.4636 41.7758 21.1491 41.9939 20.7814 42.0308C20.1404 42.1007 19.5383 41.6774 18.8961 41.8269C18.5521 41.9347 18.5732 42.3557 18.5438 42.6485C18.1597 41.4948 17.996 40.2581 18.1055 39.0453C18.3836 39.3287 18.3777 39.733 18.4626 40.0958C18.5132 40.327 18.7983 40.3329 18.9539 40.2048C19.3651 39.8978 19.629 39.3832 19.5937 38.8628C19.0741 38.7098 18.9468 37.9865 19.3545 37.6462ZM12.722 40.2298C13.0566 39.9534 13.7082 40.1562 13.7271 40.6246C13.7707 40.9435 13.7566 41.3586 13.4184 41.5115C12.689 41.9111 11.724 42.0854 11.3387 42.9177C11.4189 41.8885 11.8407 40.8191 12.722 40.2298ZM31.9645 41.4747C32.1118 41.1735 32.5006 41.2375 32.7398 41.3787C33.0438 41.5505 33.3678 41.6821 33.7248 41.6821C33.2818 41.9584 32.7304 42.1801 32.2096 42.0165C31.9868 41.9537 31.8019 41.6881 31.9645 41.4747ZM15.4026 44.4589C15.8008 44.3191 16.2392 44.6854 16.139 45.1099C16.152 45.4349 15.8786 45.6269 15.6065 45.7217C14.9961 45.979 14.2656 46.1581 13.9263 46.7912C13.9805 45.8308 14.5355 44.8882 15.4026 44.4589ZM27.3008 47.0033C27.1394 46.6464 27.4517 46.2339 27.8334 46.3489C28.2351 46.4401 28.2081 46.9169 28.2599 47.2392C28.2905 47.6128 28.4496 47.9542 28.6416 48.2684C28.049 48.0598 27.5612 47.5701 27.3008 47.0033ZM17.9996 47.065C18.2058 46.8066 18.557 46.6914 18.8785 46.7675C19.2757 46.9845 19.3604 47.6744 18.9516 47.9258C18.3861 48.3681 17.5636 48.6324 17.3692 49.409C17.3126 48.591 17.4764 47.7148 17.9996 47.065ZM22.2271 48.036C22.6784 47.7326 23.31 48.317 23.0002 48.7879C22.5901 49.3262 21.8878 49.6438 21.7194 50.3563C21.585 49.5715 21.6487 48.6372 22.2271 48.036Z" fill="white"/>
</g>
<path id="Vector_6" d="M20.9864 0.0481027C21.3623 -0.0217784 21.744 0.00786519 22.1234 0.0304138L22.1281 0.116866C22.2696 0.130036 22.4132 0.145392 22.5558 0.163178C23.337 0.382541 24.1311 0.554474 24.9159 0.763097C25.4602 0.938577 26.014 1.07844 26.5608 1.24682C26.681 1.28599 26.8013 1.32394 26.9226 1.36068C27.0387 1.40007 27.1554 1.43801 27.2725 1.47449C27.7473 1.62038 28.2128 1.79824 28.6863 1.94874C28.7995 1.99146 28.9137 2.03408 29.0281 2.07679C29.1482 2.1183 29.2685 2.15873 29.3897 2.20013C29.5783 2.28794 29.7727 2.36497 29.9765 2.41595C30.1697 2.50716 30.3689 2.59133 30.5727 2.66257C30.6882 2.70286 30.8049 2.74436 30.9227 2.78591C31.1878 2.92217 31.467 3.03005 31.7475 3.13444C31.9359 3.23056 32.1316 3.31468 32.3378 3.37518C32.6735 3.56247 33.0365 3.69533 33.3852 3.85779C33.4547 3.88267 33.5938 3.93365 33.6634 3.95853L33.6892 4.02137C34.2006 4.1932 34.6577 4.4873 35.1597 4.6794C35.2187 4.71021 35.3364 4.77305 35.3954 4.80386C35.4543 4.8335 35.5721 4.89279 35.6298 4.92243C35.7097 4.9617 35.7894 5.00119 35.869 5.04091C36.0234 5.12391 36.1837 5.19632 36.3475 5.26149C36.4971 5.35159 36.6513 5.43464 36.8093 5.51399C36.8683 5.5448 36.9861 5.60526 37.045 5.63616C37.1039 5.66221 37.2229 5.71562 37.2818 5.74167C37.7825 6.03562 38.301 6.29902 38.8147 6.57052C39.0786 6.74479 39.359 6.893 39.6395 7.03874C40.0286 7.2852 40.4234 7.5224 40.8236 7.75014C41.1347 7.95172 41.44 8.16049 41.7628 8.34297C42.1444 8.65014 42.6088 8.84224 42.9764 9.16706C43.0294 10.7973 42.9799 12.4312 42.9505 14.0615C42.8586 14.9969 42.7903 15.9359 42.7336 16.8738C42.6784 16.8466 42.6235 16.8189 42.5688 16.7908C38.8984 14.8701 35.0748 13.2469 31.1618 11.8965C28.5048 10.9799 25.7618 10.3598 23.0189 9.77295C22.5076 9.67683 22.0032 9.52871 21.4825 9.50504C20.9133 9.52633 20.3548 9.65326 19.7987 9.76464C17.3031 10.3076 14.817 10.9064 12.3816 11.6783C9.88247 12.4643 7.44581 13.4353 5.04677 14.4858C3.4597 15.2363 1.84654 15.9406 0.3278 16.8263C0.319902 16.6961 0.292467 16.5677 0.246425 16.4457C0.209963 15.815 0.237008 15.1734 0.128637 14.551C0.0615566 13.8812 0.161718 13.1805 0.00722619 12.5295C-0.000935443 11.6889 -0.00450918 10.8482 0.00964088 10.0088C0.129747 9.74676 0.0615566 9.45042 0.0744027 9.17167C0.722456 8.74136 1.36351 8.29665 2.0174 7.87226C3.09672 7.20587 4.20424 6.58583 5.31886 5.97998C5.63581 5.83065 5.94219 5.65983 6.25556 5.50214C6.31564 5.47249 6.43473 5.41321 6.4937 5.38356C6.87421 5.16425 7.27717 4.98765 7.66956 4.792C7.88161 4.68412 8.09135 4.56788 8.32002 4.49678L8.34591 4.39716C8.39782 4.40309 8.50146 4.41621 8.55217 4.42209L8.57801 4.31299C9.02815 4.20151 9.40866 3.91227 9.85412 3.78538L9.87658 3.7189C10.2582 3.61345 10.6153 3.43204 10.9688 3.25656C11.175 3.19844 11.3753 3.12015 11.5614 3.01353C11.7647 2.95399 11.9616 2.87458 12.1494 2.77643C12.3509 2.71467 12.5489 2.64002 12.7386 2.54638C13.171 2.38985 13.6081 2.24406 14.0323 2.06625C14.1492 2.02816 14.2659 1.98902 14.3822 1.94884C14.9667 1.73774 15.5593 1.54924 16.1508 1.35602C16.2707 1.32154 16.3901 1.28556 16.509 1.24809C17.0557 1.07975 17.6107 0.935175 18.1574 0.76679C18.3141 0.732384 18.4744 0.700359 18.6275 0.649382C18.9409 0.565262 19.2602 0.500046 19.5737 0.412233C19.7327 0.381423 19.8894 0.344587 20.045 0.294825C20.1993 0.258135 20.356 0.22266 20.5116 0.181013C20.6683 0.141747 20.8321 0.106224 20.9864 0.0481027ZM19.1589 1.93693C18.6983 2.43373 18.1775 2.87717 17.745 3.39642C17.7438 4.55014 17.699 5.71567 17.7663 6.86331C18.2234 7.33051 18.7123 7.76793 19.1601 8.24699C20.6022 8.24811 22.0456 8.24942 23.4878 8.24699C23.6517 8.28368 23.7483 8.13079 23.8555 8.03943C24.2467 7.63511 24.6473 7.23911 25.042 6.83722C25.0395 6.04282 25.0409 5.24846 25.0409 4.45397C23.5338 4.45523 22.0268 4.45285 20.521 4.45523C20.951 4.89036 21.3835 5.32418 21.8159 5.75824H23.1262V6.82531H19.6503V3.3573C21.0618 3.35497 22.4745 3.36206 23.886 3.35385C24.355 2.89253 24.7898 2.39811 25.2563 1.93455C23.2239 1.93577 21.1914 1.93101 19.1589 1.93693ZM14.5636 4.16118C14.3952 4.54421 14.202 4.91874 14.0688 5.31601C14.0146 6.10327 14.09 6.89407 14.0889 7.68259C14.2043 8.00751 14.4671 8.26001 14.6426 8.55518C15.1999 8.37975 15.7596 8.21025 16.3228 8.05489C16.483 7.68021 16.6845 7.32327 16.8106 6.93567C16.8483 6.37249 16.8131 5.80805 16.7859 5.24487C16.2203 5.40383 15.656 5.56614 15.0974 5.74288C15.2541 6.00132 15.4203 6.2562 15.5876 6.50997C15.7537 6.46735 15.9199 6.42464 16.0872 6.38202C16.0848 6.62023 16.0861 6.85977 16.0861 7.0993C15.6606 7.22132 15.2377 7.34709 14.817 7.48102C14.8159 6.68778 14.7793 5.89576 14.7817 5.10268C15.3048 4.9461 15.8256 4.78486 16.3477 4.62367C16.5197 4.23592 16.6941 3.84938 16.8673 3.4629C16.0906 3.66559 15.3284 3.91815 14.5636 4.16118ZM26.5808 3.85526C26.3711 4.22046 26.1437 4.57502 25.9186 4.9307C26.1084 5.38123 26.3052 5.82943 26.4996 6.27754C27.0451 6.42099 27.5859 6.58345 28.1231 6.75898C28.1856 6.92377 28.2517 7.08977 28.3152 7.25699C28.2752 7.32687 28.1951 7.46794 28.1551 7.53802C27.6177 7.38144 27.0747 7.2462 26.5325 7.1111C26.3405 7.35889 26.1496 7.60664 25.9622 7.85686C26.8789 8.0822 27.8016 8.28839 28.7089 8.55042C28.8585 8.21025 29.0329 7.87936 29.1602 7.52961C29.0788 7.02805 28.8726 6.55623 28.7347 6.06886C28.1726 5.88624 27.606 5.72626 27.0415 5.55316C26.9696 5.40616 26.8989 5.25906 26.8283 5.11327C26.9096 4.99054 26.9925 4.86879 27.0768 4.74807C27.6059 4.87962 28.1243 5.04805 28.6521 5.18548C28.8772 4.99941 29.1059 4.81795 29.3249 4.62473C28.4155 4.35328 27.5082 4.06165 26.5808 3.85526ZM12.907 4.59154C12.8859 5.4239 12.9624 6.25504 12.9295 7.0886C12.4451 6.42342 11.9891 5.73695 11.5001 5.07527C11.3475 5.1331 11.1951 5.19161 11.0429 5.2508C11.0972 6.92838 11.1054 8.60733 11.1407 10.2862C11.3563 9.9685 11.5461 9.633 11.7593 9.31163C11.7122 8.4924 11.737 7.6719 11.7134 6.85141C12.1658 7.54614 12.6631 8.21015 13.119 8.90255C13.284 8.85983 13.4513 8.81478 13.6198 8.7709C13.5385 7.31846 13.5927 5.86248 13.5125 4.41135C13.3112 4.4718 13.1073 4.53119 12.907 4.59154ZM29.7044 4.7314C29.6349 6.10099 29.5419 7.47033 29.4735 8.83976C30.0285 9.00455 30.5812 9.17532 31.129 9.36023C31.5521 9.57381 31.8513 9.05431 32.1812 8.87184C31.5473 8.65962 30.9251 8.4094 30.2818 8.22794C30.2877 7.992 30.3029 7.75724 30.3195 7.5213C30.6847 7.63511 31.0347 7.79641 31.4023 7.90191C31.7146 7.78217 31.9491 7.51426 32.2283 7.3292C31.6132 7.07782 30.9898 6.84902 30.3654 6.62616C30.389 6.33809 30.4055 6.04874 30.4314 5.76067C30.8981 5.9171 31.3586 6.09146 31.8229 6.25508C32.0551 6.08432 32.2884 5.91365 32.5216 5.74283C31.5956 5.36947 30.6541 5.03736 29.7044 4.7314ZM9.86938 5.72626C9.92014 7.3897 9.94834 9.05558 9.96133 10.7202C10.1817 10.406 10.389 10.0824 10.6058 9.76566C10.62 8.33106 10.5469 6.89757 10.5493 5.4618C10.3219 5.54783 10.0952 5.63599 9.86938 5.72626ZM32.9718 5.89217C32.9329 7.54618 32.8481 9.19903 32.7998 10.853C33.013 10.5637 33.2864 10.317 33.4548 9.9981C33.4761 9.5499 33.4619 9.10053 33.5031 8.65238C33.8955 8.84807 34.421 8.92748 34.5848 9.39818C34.8557 9.75152 34.7097 10.1997 34.6944 10.6028C34.9006 10.7012 35.1079 10.7972 35.3153 10.8968C35.3212 10.4546 35.3742 10.0148 35.3636 9.57245C35.2552 9.30449 35.0926 9.06379 34.9595 8.80895C35.1079 8.57773 35.2552 8.34646 35.4072 8.11656C35.2966 7.69781 35.1882 7.27845 35.0821 6.8585C34.3927 6.50759 33.6941 6.16732 32.9718 5.89217ZM8.65581 6.26801C8.38126 7.20246 8.17278 8.15684 7.86997 9.08279C7.61068 8.4212 7.33609 7.76433 7.04285 7.11698C6.8319 7.24975 6.57377 7.33275 6.40296 7.51537C6.41353 9.10063 6.43599 10.6882 6.48433 12.2734C6.65993 11.9509 6.85668 11.6378 7.01687 11.307C7.1064 10.4759 6.97326 9.63893 7.02039 8.80536C7.28441 9.33185 7.48227 9.88905 7.7191 10.4286C7.84913 10.3618 7.97955 10.2958 8.11033 10.2306C8.30124 9.44683 8.57332 8.68212 8.70415 7.88417C8.79369 8.73659 8.78427 9.59504 8.77838 10.451C8.98696 10.3609 9.19549 10.272 9.40523 10.1843C9.35578 8.78169 9.35578 7.37896 9.32622 5.97639C9.10006 6.0677 8.87728 6.16732 8.65581 6.26801ZM35.9764 7.31263C35.8916 8.85988 35.8408 10.4107 35.7903 11.9591C36.0392 11.7926 36.2766 11.6092 36.5008 11.4102C36.5055 10.1535 36.6103 8.89905 36.6198 7.64231C36.403 7.53438 36.1896 7.42401 35.9764 7.31263ZM3.98161 8.80181C3.78954 9.18484 3.65403 9.60457 3.5445 10.0195C3.54807 11.2419 3.601 12.4666 3.59511 13.6914C3.79427 13.3464 4.0158 13.0097 4.16894 12.6398C4.21844 12.2758 4.1701 11.9071 4.1489 11.5419C4.51414 11.3036 4.89243 11.0866 5.26825 10.8661C5.27766 11.2432 5.30355 11.6202 5.31075 11.9983C5.50503 11.8869 5.70188 11.779 5.89742 11.6688C5.90925 10.725 5.84565 9.78355 5.8668 8.83981C5.91509 8.44978 5.57453 8.18882 5.39666 7.88422C4.91836 8.17818 4.43045 8.46275 3.98161 8.80181ZM37.2112 7.93743C37.157 9.19903 37.1276 10.4616 37.0569 11.7233C37.5635 11.9283 38.069 12.1358 38.5651 12.367C38.8268 12.2342 39.0883 12.1038 39.3498 11.9722C38.8149 11.6912 38.26 11.4469 37.7061 11.2075C37.7144 11.0141 37.7238 10.8198 37.7369 10.6265C37.9842 10.7345 38.2329 10.8435 38.4767 10.9633C38.7784 10.8104 39.0741 10.6443 39.3663 10.4724C38.822 10.2555 38.3047 9.97793 37.7616 9.761C37.7649 9.50247 37.7803 9.2452 37.8004 8.98905C38.1374 9.15622 38.4661 9.34244 38.8126 9.49183C39.1024 9.45514 39.3534 9.26182 39.6173 9.13727C38.8232 8.72119 38.0301 8.30146 37.2112 7.93743ZM40.1122 9.33418C39.9908 9.72786 39.8189 10.106 39.7174 10.5068C39.7787 10.859 39.8895 11.2004 39.9801 11.5454C40.4433 11.7493 40.9074 11.9556 41.3587 12.1869C41.4082 12.3848 41.4577 12.5888 41.3881 12.7915C41.0276 12.616 40.6683 12.437 40.3065 12.265C40.0768 12.4062 39.8529 12.5555 39.6302 12.7062C40.263 13.0108 40.9039 13.3002 41.5284 13.6238C41.6899 13.3049 41.8477 12.9859 42.0068 12.6659C41.9255 12.2841 41.8406 11.9035 41.7664 11.5217C41.3245 11.2929 40.8732 11.083 40.4161 10.8861C40.3584 10.6822 40.3301 10.47 40.3771 10.2614C40.7236 10.4167 41.0451 10.6194 41.3776 10.802C41.5801 10.6716 41.784 10.5424 41.9914 10.4167C41.3823 10.0266 40.7484 9.67562 40.1122 9.33418ZM1.433 10.4818C1.28691 10.8316 1.16792 11.1957 1.07592 11.5644C1.05 12.1946 1.05238 12.8256 1.08307 13.4555C1.07118 13.7815 1.33274 14.0164 1.48125 14.2819C1.89952 14.0507 2.30833 13.8041 2.73017 13.5801C2.84443 13.2256 2.99999 12.8841 3.08363 12.5213C3.11551 12.0056 3.08474 11.4886 3.09546 10.9728C2.65705 11.2087 2.23521 11.4731 1.81341 11.7363C1.93835 11.9343 2.06565 12.1324 2.1916 12.3316C2.27766 12.2865 2.44741 12.1963 2.53226 12.1525C2.54967 12.3508 2.5524 12.5501 2.54042 12.7488C2.24356 12.954 1.9184 13.114 1.61323 13.3061C1.65216 12.6196 1.58967 11.9343 1.59198 11.2478C1.8818 11.0629 2.17049 10.8744 2.46629 10.6989C2.96232 10.4583 2.92943 9.80619 3.14038 9.36271C2.56066 9.71716 1.95733 10.0492 1.433 10.4818Z" fill="black"/>
<path id="Vector_7" d="M33.5586 6.92606C33.9734 7.15966 34.6557 7.21297 34.7346 7.78441C34.7947 7.95289 34.6604 8.10111 34.6179 8.25632C34.2539 8.09027 33.8651 7.96698 33.5292 7.75C33.5363 7.475 33.5563 7.20106 33.5586 6.92606ZM4.11719 9.63291C4.48601 9.38385 4.86535 9.15146 5.24354 8.91548C5.24122 9.25463 5.24712 9.59374 5.27773 9.93163C4.90066 10.1522 4.52488 10.3762 4.1607 10.6181C4.15365 10.2885 4.13119 9.96127 4.11719 9.63291Z" fill="black"/>
<g id="Group_2">
<path id="Vector_8" d="M19.7988 9.76442C20.355 9.65304 20.9135 9.52616 21.4826 9.50482C22.0033 9.52844 22.5077 9.67666 23.019 9.77273C25.7619 10.3597 28.505 10.9797 31.1619 11.8962C35.0749 13.2467 38.8985 14.8699 42.5689 16.7905C42.6961 16.9115 42.7172 17.093 42.729 17.2602C42.5558 17.6312 42.6312 18.051 42.5911 18.447C42.4592 18.7481 42.5028 19.0837 42.4721 19.4037C42.3438 19.9848 42.279 20.5846 42.2354 21.1799C42.1364 21.4063 42.1351 21.6553 42.114 21.8983C41.9502 22.8043 41.7829 23.7112 41.6391 24.6206C41.506 25.1719 41.3894 25.7268 41.2844 26.2841C41.0499 27.2338 40.8237 28.1859 40.5786 29.1333C40.4844 29.4059 40.4114 29.6845 40.343 29.9632C40.1839 30.4765 40.0202 30.99 39.867 31.5046C39.8294 31.6231 39.7915 31.7428 39.7574 31.8626C39.5536 32.4115 39.3661 32.9665 39.1694 33.5178C39.1259 33.6341 39.0831 33.7507 39.041 33.8675C38.9537 34.0632 38.8784 34.2648 38.8112 34.4687C38.717 34.6589 38.6378 34.8564 38.5744 35.0592C38.4106 35.4125 38.2587 35.7729 38.1102 36.1333C36.4701 39.7543 34.4057 43.2259 31.6698 46.1188C29.5359 48.4261 26.998 50.354 24.202 51.7769C24.1418 51.8053 24.0228 51.8633 23.9639 51.893C23.9049 51.9226 23.7895 51.9844 23.7306 52.0152C23.2934 52.2014 22.8717 52.4207 22.4345 52.6055C22.2344 52.6757 22.0371 52.7537 21.8429 52.8392C21.7198 52.89 21.5973 52.9422 21.4753 52.9957C21.156 52.8653 20.8392 52.7302 20.5163 52.6117C16.8778 51.0715 13.5939 48.6978 10.9675 45.7337C8.89139 43.4252 7.20536 40.7872 5.78901 38.0246C5.7181 37.862 5.63946 37.7029 5.55338 37.5479L5.44028 37.3107L5.31771 37.0736C4.99612 36.3659 4.66492 35.6603 4.37752 34.9371C4.30698 34.7375 4.22837 34.541 4.1419 34.3479C3.97331 33.9174 3.83789 33.4752 3.66345 33.0483C3.23461 31.7938 2.84811 30.5264 2.49233 29.2507C2.33789 28.6507 2.18002 28.0519 2.02688 27.4508C1.90078 26.9457 1.80878 26.4312 1.66868 25.9296C1.46136 24.9407 1.29397 23.9413 1.0737 22.9583C1.05598 22.7188 1.04183 22.4782 0.958185 22.2517C0.894534 21.7347 0.858072 21.2048 0.715509 20.7044C0.690783 20.4234 0.723671 20.1282 0.59999 19.8661C0.572898 19.514 0.59999 19.1536 0.480946 18.8156C0.44207 18.4576 0.493986 18.0841 0.361951 17.7403C0.34669 17.4356 0.333651 17.1308 0.327759 16.8262C1.8465 15.9403 3.45965 15.2361 5.04673 14.4857C7.44577 13.4352 9.88243 12.4641 12.3815 11.6781C14.817 10.9062 17.3031 10.3075 19.7988 9.76442ZM20.653 10.7023C20.811 11.2786 21.1302 11.7896 21.4637 12.2769C22.4522 13.7897 23.8497 14.96 25.24 16.0827C24.3469 16.0899 23.6129 15.5042 22.9094 15.0251C22.5747 15.2978 22.2037 15.5267 21.803 15.6867C20.1593 16.3589 18.3635 16.461 16.655 16.8866C16.5714 16.9031 16.5797 16.9825 16.5833 17.049L16.7482 16.9327C17.6743 16.9624 18.5934 17.1272 19.4948 17.3347C17.8146 17.3786 16.139 17.6809 14.5472 18.2204C12.9141 18.7966 11.3281 19.6443 10.1157 20.9046C10.6978 20.6876 11.2575 20.4102 11.8583 20.2466C11.1185 20.9745 10.356 21.6848 9.71263 22.5029C8.66403 23.8321 7.64252 25.352 7.66256 27.1211C8.15858 26.6421 8.60047 26.0895 9.20371 25.7361C8.48022 27.3747 7.88761 29.0797 7.55168 30.8439C7.39622 31.8126 7.30905 32.9011 7.86868 33.763C7.92644 33.3991 7.9063 32.9924 8.16085 32.6959C8.95273 34.7661 10.1298 36.7486 11.8535 38.1653C11.4953 37.5809 11.1031 37.0177 10.8073 36.3976C9.64555 34.1603 9.25905 31.5221 9.77396 29.0488C10.2016 26.981 11.0606 24.9595 12.471 23.3743C13.8496 21.8057 15.7867 20.7896 17.8227 20.409C19.9106 20.013 22.1022 20.1196 24.1405 20.7279C24.2195 20.2892 24.3373 19.8315 24.6532 19.4996C25.0384 19.0633 25.6782 18.9636 26.2237 19.0834C25.6275 19.3691 24.8558 19.6205 24.6661 20.3401C24.3892 21.6645 26.1931 22.7305 27.2607 21.9894C27.6884 21.7285 28.2281 21.7677 28.6557 22.0071C28.8831 21.923 29.1165 21.7416 29.3663 21.8649C29.794 22.0392 30.2606 22.1423 30.6552 22.3865C30.673 22.4399 30.7106 22.5478 30.7283 22.6012C30.4785 23.0386 29.9955 23.2508 29.5772 23.4868C30.317 23.4275 31.0465 23.1052 31.7935 23.2509C32.2224 23.3873 32.0398 23.8948 31.955 24.2077C32.3497 24.0666 32.7197 23.814 32.9177 23.4334C33.165 22.9426 33.1544 22.3699 33.0979 21.8364C32.98 21.9589 32.8672 22.0863 32.7597 22.2181C32.7715 21.8625 32.7632 21.4961 32.5865 21.1771C32.6218 21.6609 32.3933 22.096 31.9561 22.3048C31.6168 21.7238 31.2422 21.1605 30.7932 20.6602C30.7767 20.8452 30.7637 21.0302 30.7542 21.2162C30.5904 21.0336 30.4373 20.806 30.1864 20.7467C29.7987 20.6626 29.3722 20.8143 29.0115 20.608C28.8006 20.4977 28.5202 20.276 28.6652 20.0056C28.9019 19.6962 29.3061 19.6215 29.6548 19.5112C29.7373 19.7543 29.8234 19.9961 29.9082 20.2392C30.449 19.8882 31.0322 19.4485 31.7168 19.5551C31.8782 19.5905 32.1505 19.631 32.1057 19.8634C32.0256 20.1646 31.7687 20.3685 31.592 20.6104C32.1727 20.5 32.5864 20.0519 33.0248 19.6915C33.238 20.1384 33.2874 20.6328 33.3087 21.1225C33.8837 20.512 33.7787 19.6073 33.7929 18.8354C34.2878 19.0595 34.653 19.4639 35.009 19.861C34.7322 19.2468 34.2548 18.7133 33.6468 18.4192C33.3358 18.2924 33.2156 17.9581 33.0341 17.7031C32.7572 17.7754 32.4957 17.9438 32.2069 17.9367C31.8982 17.8963 31.7745 17.5845 31.685 17.3284C31.309 17.3996 30.8613 17.4067 30.5927 17.0854C30.2333 16.732 30.205 16.2068 30.039 15.7587C29.7267 15.4836 29.3166 15.3223 28.9066 15.2844C28.4164 15.2333 27.9781 15.5512 27.4903 15.5096C26.8764 15.4645 26.292 15.2476 25.7406 14.9844C23.9732 14.1544 22.4486 12.862 21.2137 11.3539C21.0348 11.1304 20.8698 10.892 20.653 10.7023ZM19.1955 12.8874C19.8742 13.7448 20.5905 14.6161 21.5131 15.2173C21.9102 15.484 22.2731 15.0607 22.5595 14.8284C21.3765 14.2901 20.336 13.4969 19.1955 12.8874ZM5.67952 18.1387C6.02946 18.2288 6.44068 18.2134 6.73054 18.4624C6.93086 18.6 6.74585 18.8075 6.68577 18.9699C6.39939 19.4677 6.49718 20.0879 6.70108 20.5977C6.87426 21.0921 7.41037 21.4396 7.31494 22.0169C6.90952 21.9246 6.55731 21.6874 6.22263 21.4526C5.89979 21.2131 5.93162 20.7507 5.67595 20.4627C5.13511 19.8472 4.17479 19.6422 3.44666 20.0334C3.8885 20.0736 4.39757 20.0156 4.76518 20.3144C5.11154 20.6191 5.07035 21.1218 5.12685 21.5379C5.25063 21.7881 5.61346 21.7111 5.79847 21.8973C6.02357 22.1392 6.17671 22.4498 6.44894 22.6489C6.9143 22.9763 7.5553 22.9466 7.98183 23.3413C8.20446 23.6164 8.05132 23.9995 8.05833 24.3195C8.5049 23.2454 9.26268 22.3573 10.0591 21.5309C9.65023 21.7065 9.33439 22.0562 8.8855 22.1464C8.70638 21.729 8.63099 21.2275 8.83962 20.8078C8.95509 20.5148 9.34975 20.7271 9.53356 20.5243C9.81173 20.2611 9.76923 19.7964 9.59605 19.4868C9.30266 19.0268 8.83721 18.7114 8.38122 18.4328C8.55913 18.6616 8.77713 18.8562 8.95031 19.0909C9.10229 19.3043 9.15889 19.6505 8.90313 19.8082C8.71353 19.692 8.5049 19.6291 8.28453 19.6185C7.95585 20.2231 8.07132 20.9228 8.02771 21.5807C7.6459 20.9832 7.31842 20.2883 7.36319 19.5604C7.4563 19.5509 7.64247 19.5332 7.73553 19.5237C7.70844 18.5441 6.58909 17.8079 5.67952 18.1387ZM16.3793 21.5036C14.6214 22.3312 13.0885 23.6556 12.0586 25.3155C10.6825 27.522 10.164 30.2217 10.5304 32.7934C10.8239 34.7747 11.4519 36.7156 12.4451 38.4549C12.9954 37.6142 12.9976 36.5388 13.5008 35.6793C14.0758 35.1077 14.9584 35.1185 15.6995 34.9251C15.8786 34.8623 16.1825 34.8588 16.1744 34.6039C14.553 33.1633 13.1473 31.2259 13.0271 28.9815C13.6835 30.677 14.7298 32.3061 16.3217 33.244C17.1098 33.691 17.9783 34.1024 18.9056 34.0716C18.3517 33.9162 17.7945 33.7443 17.303 33.4348C16.0258 32.6737 15.1562 31.4003 14.4953 30.0936C14.3278 29.7284 13.9532 29.355 14.13 28.9246C14.2642 28.6471 14.6331 28.7124 14.8722 28.7871C17.0767 29.6027 19.4923 29.9395 21.8206 29.5423C23.5373 29.221 25.2387 28.5368 26.5337 27.3299C25.4673 27.8587 24.401 28.4088 23.2509 28.7372C21.5789 29.2245 19.7456 29.4817 18.063 28.8973C17.3866 28.6721 16.7316 28.3626 16.153 27.944C15.9916 27.8291 15.7972 27.5646 16.0069 27.3987C16.3168 27.1401 16.7468 27.1212 17.1298 27.0821C18.7747 27.0287 20.4243 26.8497 22.0197 26.43C23.6811 25.9817 25.3329 25.2751 26.5796 24.0515C26.9414 23.6603 27.3325 23.2441 27.448 22.7034C26.992 23.0591 26.6621 23.5559 26.1777 23.882C24.4209 25.1672 22.2483 25.7055 20.1297 26.0044C19.0233 26.143 17.8627 26.2852 16.7905 25.8845C16.1624 25.6628 15.5297 25.2633 15.3223 24.5886C15.0183 24.9502 14.778 25.3984 14.348 25.6249C14.1524 25.7281 14.0957 25.4696 14.0875 25.3296C14.0098 24.8755 14.316 24.5045 14.5506 24.1559C15.2422 23.2038 15.8678 22.19 16.7386 21.3873C16.6168 21.4193 16.4968 21.4581 16.3793 21.5036ZM26.6186 25.753C23.9132 27.3643 20.6706 27.7425 17.5824 27.6015C17.3833 27.5883 16.9709 27.6252 17.0723 27.9287C17.5318 28.3329 18.1904 28.3413 18.7678 28.3828C21.8819 28.4468 25.1387 27.5813 27.4929 25.4494C27.758 25.1994 28.0726 24.9705 28.2069 24.6172C27.6767 24.9953 27.19 25.4351 26.6186 25.753ZM25.4745 28.9993C26.3688 29.2874 27.2972 29.5435 28.0843 30.0806C28.2834 30.2335 28.5639 30.4802 28.4177 30.7611C28.1973 31.1287 27.7662 31.3019 27.3656 31.3836C26.8589 31.4834 26.397 31.2093 25.9552 31.0078C26.5632 31.8438 27.6107 32.2302 28.6192 32.1093C28.5026 31.9007 28.4296 31.6729 28.4649 31.4335C29.2097 31.2355 30.0945 31.4264 30.6813 31.9398C30.3561 30.9273 29.635 30.0498 28.6877 29.5721C27.7038 29.074 26.5644 28.9056 25.4745 28.9993ZM14.9443 29.3052C14.9832 29.4843 14.982 29.6869 15.101 29.8388C15.603 30.5395 16.3346 31.0458 17.1171 31.3836C18.8632 32.1378 20.8674 32.2278 22.6973 31.7572C21.5851 31.7891 20.4657 31.7643 19.3722 31.5391C17.9383 31.2807 16.463 30.6937 15.5404 29.5068C15.4002 29.3159 15.1516 29.3301 14.9443 29.3052ZM25.4191 31.7879C25.7808 32.3689 26.4207 32.7009 27.0675 32.8575C27.2006 33.1111 27.494 33.455 27.2314 33.7241C26.8237 34.03 26.2545 33.9198 25.8056 33.7727C24.8583 33.4123 24.2857 32.5243 23.7366 31.7227C24.1301 32.9238 25.015 33.9731 26.1804 34.4734C27.4941 35.0769 29.0283 34.8683 30.3314 34.3442C29.6303 34.3015 28.8692 34.3916 28.2305 34.0383C27.8665 33.8345 27.8559 33.3507 28.0468 33.021C29.0082 33.1715 29.9637 32.7862 30.9264 32.9439C31.69 33.0387 32.5417 33.3613 32.8624 34.1272C33.3324 35.2405 33.0686 36.4961 32.7091 37.6024C32.1729 39.1342 31.5002 40.6235 30.6413 42C30.3183 42.4979 29.9885 43.0017 29.5491 43.4038C28.6618 44.165 27.5931 44.6806 26.4926 45.0459C24.6616 45.6695 22.6643 45.9968 20.7579 45.5439C19.8094 45.3245 18.9563 44.7092 18.5122 43.8295C17.6167 42.1019 17.5024 40.0875 17.6356 38.1787C16.9464 38.8297 16.0896 39.4295 15.1058 39.4248C14.5072 39.4071 13.7991 39.0394 13.7862 38.3625C13.8615 37.759 14.3894 37.3298 14.9032 37.0832C15.3662 36.8651 15.9271 37.1864 16.0896 37.6452C16.1002 37.9629 15.7233 38.1077 15.4663 38.1717C15.1423 38.1136 14.9538 37.8195 14.6982 37.6441C14.6404 38.0116 14.6805 38.4669 15.0445 38.6648C15.642 38.9802 16.429 38.8451 16.9487 38.4337C17.6875 37.6986 17.8335 36.2378 16.964 35.5477C16.2158 35.077 15.2862 35.3972 14.5061 35.6165C13.9346 35.7742 13.62 36.3339 13.5128 36.884C13.3161 37.8124 12.9979 38.7277 12.4382 39.5008C12.9614 39.5447 13.5517 39.6181 13.9252 40.0307C14.26 40.4197 14.2128 40.9875 14.049 41.4405C13.8946 41.8579 13.831 42.3404 14.062 42.7435C14.5274 43.5971 15.635 43.7619 16.1487 44.5706C16.362 44.9523 16.3443 45.4137 16.5139 45.8131C16.6435 46.0894 16.9392 46.2412 17.2279 46.2886C17.8501 46.4025 18.5087 46.4059 19.0848 46.6976C19.6516 46.9893 19.7094 47.8204 20.3515 48.0173C20.8558 48.1488 21.3189 47.8026 21.8138 47.7516C22.3628 47.5998 22.9308 47.7077 23.4587 47.8879C24.1068 48.105 24.869 48.0955 25.4347 47.6723C26.1559 47.1328 26.8061 46.4806 27.6321 46.0965C28.4863 45.6614 29.495 45.627 30.3162 45.1172C30.7734 44.8385 30.9773 44.3098 31.0844 43.8083C31.3094 42.7376 31.5887 41.6527 32.1767 40.7184C32.4865 40.2156 33.0027 39.86 33.2336 39.3051C33.6295 38.3636 33.6271 37.3202 33.8723 36.3398C34.0031 35.7623 34.5369 35.3034 34.4332 34.6739C34.3059 34.1534 34.0525 33.6709 33.8039 33.2002C33.5271 32.6868 33.0322 32.2824 32.4419 32.222C31.1729 32.1165 29.9097 32.3488 28.6514 32.4734C27.7606 32.5445 26.785 32.4212 26.0722 31.8355C25.4948 31.3742 25.2415 30.6403 25.1319 29.9312C24.9702 30.5502 25.0844 31.2437 25.4191 31.7879ZM34.2066 33.3744C34.1807 33.5557 34.2549 33.6387 34.4282 33.6222C34.6862 33.5558 34.7733 33.2843 34.8665 33.065C34.6415 33.1562 34.4035 33.2285 34.2066 33.3744ZM34.0982 36.4619C34.1042 36.5448 34.1171 36.712 34.1242 36.7961C34.5542 37 35.0007 36.6847 35.2906 36.38C34.8936 36.4334 34.4789 36.3137 34.0982 36.4619ZM19.3545 37.6462C18.9468 37.9865 19.0741 38.7098 19.5937 38.8628C19.629 39.3832 19.3651 39.8978 18.9539 40.2048C18.7984 40.3329 18.5132 40.327 18.4626 40.0958C18.3777 39.733 18.3836 39.3287 18.1055 39.0453C17.996 40.2583 18.1597 41.4948 18.5438 42.6485C18.5732 42.3557 18.5521 41.9347 18.8961 41.8269C19.5383 41.6775 20.1403 42.1008 20.7814 42.0308C21.149 41.9939 21.4636 41.7759 21.8207 41.694C22.087 41.6572 22.3473 41.8208 22.6136 41.7509C22.9082 41.3999 23.112 40.8901 23.6046 40.7822C24.1029 40.6849 24.5225 41.0395 24.9432 41.2447C24.5342 40.5107 23.5835 40.1799 22.7939 40.3957C22.358 40.4846 22.1482 40.979 21.7029 41.049C21.2869 41.1142 20.8627 41.0655 20.4457 41.0406C20.3584 40.7395 20.6848 40.5249 20.924 40.4277C21.5897 40.1704 22.2295 39.702 22.4782 39.0049C22.5983 38.7181 22.5347 38.3931 22.6372 38.1062C23.0507 37.8608 23.4985 38.1903 23.9075 38.284C23.6552 37.9212 23.1969 37.7814 22.7751 37.7943C22.2224 37.7814 21.6038 37.9593 21.2975 38.4584C21.3835 38.5733 21.684 38.635 21.5826 38.8295C21.2103 39.459 20.5493 39.8326 19.966 40.2369C20.1792 39.5966 20.7518 39.0833 20.7389 38.3683C20.6505 38.0292 20.1545 38.1988 19.9602 37.9331C20.1816 37.3914 20.7767 37.2704 21.2691 37.1032C20.607 37.1328 19.893 37.2265 19.3545 37.6462ZM12.722 40.2298C11.8407 40.8191 11.4189 41.8885 11.3387 42.9177C11.724 42.0854 12.689 41.9111 13.4184 41.5115C13.7565 41.3586 13.7707 40.9436 13.7271 40.6246C13.7082 40.1563 13.0566 39.9535 12.722 40.2298ZM31.9645 41.4747C31.8019 41.6881 31.9868 41.9537 32.2095 42.0166C32.7303 42.1801 33.2817 41.9584 33.7247 41.6821C33.3677 41.6821 33.0437 41.5506 32.7397 41.3787C32.5005 41.2376 32.1117 41.1736 31.9645 41.4747ZM15.4025 44.4589C14.5354 44.8882 13.9804 45.8308 13.9263 46.7911C14.2656 46.158 14.9961 45.979 15.6064 45.7217C15.8786 45.6269 16.152 45.4348 16.139 45.1098C16.2392 44.6855 15.8008 44.3191 15.4025 44.4589ZM27.3008 47.0033C27.5612 47.5701 28.049 48.0598 28.6417 48.2684C28.4496 47.9543 28.2905 47.6128 28.26 47.2393C28.2082 46.9168 28.2351 46.4402 27.8334 46.3489C27.4517 46.2339 27.1394 46.6465 27.3008 47.0033ZM17.9995 47.0651C17.4764 47.7147 17.3126 48.591 17.3692 49.409C17.5635 48.6325 18.3861 48.3681 18.9516 47.9258C19.3604 47.6744 19.2756 46.9844 18.8785 46.7675C18.5569 46.6916 18.2057 46.8067 17.9995 47.0651ZM22.2271 48.0361C21.6486 48.6372 21.585 49.5715 21.7193 50.3564C21.8877 49.6439 22.59 49.3262 23.0001 48.7879C23.31 48.3171 22.6784 47.7326 22.2271 48.0361Z" fill="#ED1C24"/>
<path id="Vector_9" d="M28.4366 16.4219C28.8125 16.5381 29.2072 16.576 29.589 16.6709C29.8105 16.8417 29.8435 17.144 29.9342 17.3918C29.2462 17.4795 28.7996 16.9116 28.4366 16.4219Z" fill="#ED1C24"/>
</g>
</g>
<defs>
<clipPath id="clip0_44_80">
<rect width="43" height="53" fill="white"/>
</clipPath>
</defs>
</svg>
