<svg width="125" height="19" viewBox="0 0 125 19" fill="none" xmlns="http://www.w3.org/2000/svg">
<path id="Vector" d="M113.737 11.197L115.581 4.86686H115.609L117.447 11.197H113.737ZM119.598 18.6709H125L119.428 0.333361H111.757L106.186 18.6709H111.586L112.573 15.2811H118.616L119.598 18.6709ZM23.4666 9.49841C23.4666 8.49356 23.4932 7.89732 23.5123 7.45584C23.6531 4.62572 24.7742 4.29448 26.9515 4.29448C29.131 4.29448 30.2515 4.62572 30.3939 7.45584C30.413 7.89838 30.4391 8.49462 30.4391 9.49841C30.4391 10.5096 30.413 11.1032 30.3939 11.5516C30.251 14.3748 29.1304 14.7082 26.9515 14.7082C24.7737 14.7082 23.6531 14.3753 23.5123 11.5516C23.4932 11.1032 23.4666 10.5102 23.4666 9.49841ZM26.9515 19C32.4995 19 35.1752 18.0285 35.5535 13.0339C35.6454 11.8468 35.663 10.6273 35.6651 9.49841C35.6651 8.37484 35.6454 7.15852 35.5535 5.96552C35.1747 0.976764 32.4995 0 26.9515 0C21.4072 0 18.7305 0.976764 18.3522 5.96552C18.2613 7.15852 18.2438 8.37484 18.2438 9.49841C18.2438 10.6273 18.2608 11.8468 18.3522 13.0339C18.7305 18.0285 21.4072 19 26.9515 19ZM0 0.333891V4.90555H5.49434V18.6709H10.995V4.90555H16.4894V0.333891H0ZM79.1331 0.333891H84.3512V18.6714H79.1331V0.333891ZM63.3626 7.02815V0.333891H58.1706V18.6709H63.3626V11.603H69.3893V18.6709H74.5718V0.333891H69.3893V7.02815H63.3626ZM94.1614 4.52714H97.7557C98.7009 4.52714 99.2785 4.97233 99.2785 6.03707C99.2785 6.95607 98.7062 7.51732 97.7557 7.51732H94.1614V4.52714ZM94.1614 11.1403H97.7557C99.2131 11.1403 99.5154 11.7758 99.5154 12.8087C99.5154 13.8353 98.9485 14.4702 97.7557 14.4702H94.1614V11.1403ZM101.511 9.08767C103.822 8.49939 104.499 7.11665 104.499 5.12709C104.499 1.09919 101.957 0.333361 98.3418 0.333361H88.9794V18.6709H98.8093C103.333 18.6709 104.855 16.7264 104.855 13.7335C104.855 11.6496 104.378 9.80845 101.511 9.08767ZM38.6872 12.6529H43.6316C43.6364 13.5475 43.7533 14.1411 44.1842 14.4617C44.6757 14.8338 45.1156 14.9604 46.5773 14.9604C47.9842 14.9604 49.5229 14.9604 49.5229 13.2269C49.5229 11.8643 48.6643 11.5595 47.0735 11.4726C43.1338 11.2643 41.7078 11.1504 40.2397 10.0618C39.2414 9.32193 38.7239 7.88142 38.7239 5.92736C38.7239 2.60859 39.8843 1.44527 41.559 0.632803C43.2874 -0.202985 50.0707 -0.202985 51.8931 0.632803C54.1916 1.69013 54.2606 3.97066 54.2606 6.09007H49.3252C49.3157 5.01208 49.0707 4.70522 48.8715 4.5017C48.3593 4.05121 47.6293 3.95635 46.5773 3.95635C45.3016 3.95635 43.8293 4.01305 43.8293 5.55743C43.8293 6.73241 44.3335 7.22954 45.6788 7.31275C47.5209 7.43146 51.1482 7.54488 52.4419 8.30647C54.2596 9.37757 54.7245 10.8266 54.7245 13.1919C54.7245 16.6061 53.5003 17.6045 51.8006 18.355C49.8332 19.2258 43.2592 19.2258 41.1244 18.2872C38.734 17.2505 38.6872 15.1756 38.6872 12.6529Z" fill="#FF0000"/>
</svg>
