<svg width="130" height="18" viewBox="0 0 130 18" fill="none" xmlns="http://www.w3.org/2000/svg">
<path id="Vector" fill-rule="evenodd" clip-rule="evenodd" d="M71.2872 8.35835C71.2872 8.35835 70.0224 7.61877 69.2403 7.33261C69.2403 7.33261 66.8194 6.27158 66.3392 5.76677C66.3392 5.76677 65.3956 4.92592 65.9481 3.94928C65.9481 3.94928 66.1793 3.31021 67.1764 3.31021C67.1764 3.31021 68.4745 3.37772 68.4745 4.38658V5.80973H73.1264L73.1183 3.71375C73.1183 3.71375 73.476 0.281329 67.6388 0.130192C67.6388 0.130192 63.0478 -0.155209 61.731 2.1832C61.731 2.1832 61.2143 2.70489 61.2143 4.52161V5.83428C61.2143 5.83428 61.1615 7.34872 61.9793 8.32459C61.9793 8.32459 62.4417 8.96443 63.5808 9.67025C63.5808 9.67025 65.8938 10.8479 67.2819 11.5223C67.2819 11.5223 68.683 12.2787 68.4988 13.4824C68.4988 13.4824 68.3844 14.7184 67.0312 14.6677C67.0312 14.6677 65.794 14.6156 65.794 13.4034V11.981H60.837V14.0471C60.837 14.0471 60.6983 17.9981 67.0677 17.9981C67.0677 17.9981 73.154 18.1147 73.4379 13.9435V12.2611C73.4371 12.2611 73.6529 9.70477 71.2872 8.35835ZM47.4711 0.621962L45.9134 9.85284H45.5491L44.0612 0.70482H36.2907L35.9013 17.4212H40.5021L40.5573 4.82619H40.9191L43.3578 17.4189H48.198L50.6067 4.83079H50.9271L51.0383 17.4212H55.6634L55.1653 0.621962H47.4711ZM20.0836 0.691779L17.0227 17.402H21.9756L23.7888 4.44566H24.1961L26.0085 17.402H30.9606L27.9004 0.691779H20.0836ZM124.011 8.12819V10.5932H125.282V13.2392C125.282 14.5327 124.113 14.5565 124.113 14.5565C122.691 14.5565 122.745 13.3275 122.745 13.3275V4.17483C122.745 3.23195 124.006 3.18132 124.006 3.18132C125.217 3.18132 125.225 4.30603 125.225 4.30603V5.69772H129.888C130.041 2.98108 129.468 2.3236 129.468 2.3236C128.311 -0.132955 123.935 0.00130356 123.935 0.00130356C117.21 0.00130356 117.956 4.88066 117.956 4.88066V13.7302C118.101 18.3065 124.727 17.8416 124.839 17.8378C127.787 17.5294 128.677 16.6433 128.677 16.6433C129.496 16.0679 129.707 15.2708 129.707 15.2708C129.942 14.8066 130 13.3275 130 13.3275V8.12819H124.011ZM108.554 10.8479H108.351L103.619 0.626563H97.9566V17.4227H102.565L102.289 7.20295H102.495L107.398 17.4227H112.888V0.625029H108.221L108.554 10.8479ZM86.7081 13.2377C86.7081 13.2377 86.7747 14.6163 85.4231 14.6163C85.4231 14.6163 84.0017 14.6885 84.0017 13.2722L83.9871 0.636537H78.9328V13.1717C78.9328 13.1717 78.4143 17.916 85.4944 17.916C85.4944 17.916 91.6473 17.9851 91.6473 13.3896V0.637303H86.7081V13.2377ZM10.448 8.35835C10.448 8.35835 9.18482 7.61877 8.40193 7.33338C8.40193 7.33338 5.98267 6.27311 5.50239 5.76753C5.50239 5.76753 4.55886 4.92515 5.11216 3.95081C5.11216 3.95081 5.34256 3.31174 6.33882 3.31174C6.33882 3.31174 7.6377 3.37849 7.6377 4.38735V5.81049H12.2912L12.2823 3.71375C12.2823 3.71375 12.6377 0.281328 6.80288 0.130958C6.80288 0.130958 6.36316 0.104104 5.71819 0.134792C5.71819 0.134792 2.18342 0.314316 0.919431 2.14791C0.912129 2.16172 0.901582 2.1717 0.894281 2.18397C0.894281 2.18397 0.378303 2.70489 0.378303 4.52238V5.83504C0.378303 5.83504 0.324757 7.34949 1.14334 8.32536C1.14334 8.32536 1.60578 8.9652 2.74483 9.67101C2.74483 9.67101 5.05699 10.8487 6.4451 11.523C6.4451 11.523 7.84782 12.2779 7.66203 13.4832C7.66203 13.4832 7.54764 14.7192 6.19523 14.6685C6.19523 14.6685 4.95801 14.6164 4.95801 13.4042V11.981H0.000241732V14.0486C0.000241732 14.0486 -0.138488 17.9997 6.23092 17.9997C6.23092 17.9997 12.3156 18.1163 12.602 13.9451V12.2641C12.602 12.2626 12.8145 9.70477 10.448 8.35835Z" fill="black"/>
</svg>
