<svg width="20" height="20" viewBox="0 0 20 20" fill="none" xmlns="http://www.w3.org/2000/svg">
<g id="basket-commerce-and-shopping-svgrepo-com 1" clip-path="url(#clip0_78_347)">
<g id="Group">
<g id="Group_2">
<path id="Vector" d="M16.3042 7.8261V5.21738H14.9999V7.8261H11.9564V10.8696H14.5651V14.7826H13.2608V16.087H11.9564V17.3913H8.04338V16.087H6.73904V14.7826H5.43467V10.8696H8.04338V7.8261H4.9999V5.21738H3.69557V7.8261H0.217285V13.913H1.52166V18.6957H2.826V20H17.1738V18.6957H18.4781V13.913H19.7825V7.8261H16.3042Z" fill="black"/>
</g>
</g>
<g id="Group_3">
<g id="Group_4">
<path id="Vector_2" d="M17.6088 2.60871H16.3044V5.21742H17.6088V2.60871Z" fill="black"/>
</g>
</g>
<g id="Group_5">
<g id="Group_6">
<path id="Vector_3" d="M18.913 0H17.6086V2.60871H18.913V0Z" fill="black"/>
</g>
</g>
<g id="Group_7">
<g id="Group_8">
<path id="Vector_4" d="M3.69569 2.60871H2.39136V5.21742H3.69569V2.60871Z" fill="black"/>
</g>
</g>
<g id="Group_9">
<g id="Group_10">
<path id="Vector_5" d="M2.39125 0H1.08691V2.60871H2.39125V0Z" fill="black"/>
</g>
</g>
<g id="Group_11">
<g id="Group_12">
<path id="Vector_6" d="M10.6522 13.4782V1.30434H9.34779V13.4782H8.04346V14.7826H9.34779V16.087H10.6522V14.7826H11.9565V13.4782H10.6522Z" fill="black"/>
</g>
</g>
<g id="Group_13">
<g id="Group_14">
<path id="Vector_7" d="M8.04359 12.1739H6.73926V13.4782H8.04359V12.1739Z" fill="black"/>
</g>
</g>
<g id="Group_15">
<g id="Group_16">
<path id="Vector_8" d="M13.2609 12.1739H11.9565V13.4782H13.2609V12.1739Z" fill="black"/>
</g>
</g>
</g>
<defs>
<clipPath id="clip0_78_347">
<rect width="20" height="20" fill="white"/>
</clipPath>
</defs>
</svg>
