<svg width="20" height="20" viewBox="0 0 20 20" fill="none" xmlns="http://www.w3.org/2000/svg">
<g id="cart-commerce-and-shopping-svgrepo-com 1" clip-path="url(#clip0_78_328)">
<g id="Group">
<g id="Group_2">
<path id="Vector" d="M2.60871 0H0V1.30434H2.60871V0Z" fill="black"/>
</g>
</g>
<g id="Group_3">
<g id="Group_4">
<path id="Vector_2" d="M10.0001 18.6957H7.82617V20H10.0001V18.6957Z" fill="black"/>
</g>
</g>
<g id="Group_5">
<g id="Group_6">
<path id="Vector_3" d="M17.3912 18.6957H15.2173V20H17.3912V18.6957Z" fill="black"/>
</g>
</g>
<g id="Group_7">
<g id="Group_8">
<path id="Vector_4" d="M18.6957 16.5218H17.3914V18.6957H18.6957V16.5218Z" fill="black"/>
</g>
</g>
<g id="Group_9">
<g id="Group_10">
<path id="Vector_5" d="M15.2174 15.2174H9.99997H7.82606H6.52173V18.6957H7.82606V16.5218H9.99997V18.6957H11.3043V16.5218H13.913V18.6957H15.2174V16.5218H17.3913V15.2174H15.2174Z" fill="black"/>
</g>
</g>
<g id="Group_11">
<g id="Group_12">
<path id="Vector_6" d="M3.91298 3.47828V1.30434H2.60864V4.78262H3.91298V8.69566H5.21731V15.2174H6.52165V13.913H17.3912V12.6087H18.6956V8.69566H19.9999V3.47828H3.91298ZM14.7825 9.13043H12.6086V11.3043H11.3043V9.13043H9.1304V7.82609H11.3043V5.65219H12.6086V7.82609H14.7825V9.13043Z" fill="black"/>
</g>
</g>
</g>
<defs>
<clipPath id="clip0_78_328">
<rect width="20" height="20" fill="white"/>
</clipPath>
</defs>
</svg>
