<svg width="15" height="15" viewBox="0 0 15 15" fill="none" xmlns="http://www.w3.org/2000/svg">
<g id="purchase-cash-register-svgrepo-com 1" clip-path="url(#clip0_78_372)">
<g id="Group">
<g id="Group_2">
<path id="Vector" d="M13.0435 9.13043V8.15218H12.0652V5.21739H11.087V4.23914H9.13045V3.26089H11.087V0H6.19566V3.26086H8.1522V4.23911H3.91306V5.21736H2.9348V8.15215H1.95655V9.1304H0.978271V13.0434H14.0217V9.13043H13.0435ZM7.17394 2.28261V0.978252H10.1087V2.28261H7.17394ZM4.89134 6.19564H10.1087V8.15218H4.89134V6.19564ZM5.21741 11.087H3.26088V10.1087H5.21741V11.087ZM8.47827 11.087H6.52174V10.1087H8.47827V11.087ZM12.0652 11.087H10.1087V10.1087H12.0652V11.087Z" fill="#0A84FF"/>
</g>
</g>
<g id="Group_3">
<g id="Group_4">
<path id="Vector_2" d="M14.0217 13.0435V14.0218H0.978252V13.0435H0V15H15V13.0435H14.0217Z" fill="#0A84FF"/>
</g>
</g>
</g>
<defs>
<clipPath id="clip0_78_372">
<rect width="15" height="15" fill="white"/>
</clipPath>
</defs>
</svg>
