<svg width="31" height="30" viewBox="0 0 31 30" fill="none" xmlns="http://www.w3.org/2000/svg">
<g id="Group 1">
<g id="Group">
<g id="Group_2">
<path id="Vector" d="M9.43481 0H7.41309V4.40028H9.43481V0Z" fill="white"/>
</g>
</g>
<g id="Group_3">
<g id="Group_4">
<path id="Vector_2" d="M23.587 0H21.5652V4.40028H23.587V0Z" fill="white"/>
</g>
</g>
<g id="Group_5">
<g id="Group_6">
<path id="Vector_3" d="M25.6087 8.80049V4.40021H23.587V8.80049H7.41312V4.40021H5.39134V8.80049H0V19.0677H2.02172V27.1349H4.04344V29.335H26.9565V27.1349H28.9782V19.0677H31V8.80049H25.6087ZM9.43478 24.9347H7.41306V13.2007H9.43478V24.9347ZM14.1522 24.9347H12.1304V13.2007H14.1522V24.9347ZM18.8696 24.9347H16.8478V13.2007H18.8696V24.9347ZM23.5869 24.9347H21.5652V13.2007H23.5869V24.9347Z" fill="white"/>
</g>
</g>
</g>
</svg>
