<svg width="71" height="71" viewBox="0 0 71 71" fill="none" xmlns="http://www.w3.org/2000/svg">
<g id="cpu-setting-svgrepo-com 1">
<path id="Vector" opacity="0.4" d="M59.1666 26.625V35.2633L56.8591 33.9321C54.9658 32.8375 52.5991 33.1629 51.0608 34.6421C50.7354 34.9379 50.4691 35.2929 50.2325 35.6775L50.055 36.0029C49.7296 36.565 49.4633 36.7129 49.4337 36.7425C49.3746 36.7129 49.0787 36.565 48.7533 35.9733L48.5758 35.6775C47.925 34.5533 46.8896 33.7842 45.6471 33.4588C44.375 33.1038 43.0733 33.2813 41.9787 33.9321L39.2866 35.5C38.0737 36.1804 37.2158 37.3046 36.8608 38.6358C36.5058 39.9967 36.6833 41.3871 37.3637 42.6C37.6891 43.1325 37.6891 43.4579 37.6891 43.5171C37.6596 43.5467 37.3637 43.7242 36.7129 43.7242C33.8433 43.7242 31.5062 46.0613 31.5062 48.9013V51.6821C31.5062 54.5221 33.8433 56.8592 36.7129 56.8592C37.3637 56.8592 37.6596 57.0367 37.6596 57.0663C37.6891 57.0958 37.6891 57.4508 37.3637 57.9833C37.1566 58.3679 36.9791 58.7525 36.8904 59.1667H26.625C18.46 59.1667 11.8333 52.54 11.8333 44.375V26.625C11.8333 18.46 18.46 11.8333 26.625 11.8333H44.375C52.54 11.8333 59.1666 18.46 59.1666 26.625Z" fill="#0A84FF"/>
<path id="Vector_2" d="M51.0614 28.8141V34.6421C50.736 34.9379 50.4697 35.2929 50.2331 35.6775L50.0556 36.0029C49.7301 36.565 49.4639 36.7129 49.4343 36.7425C49.3751 36.7129 49.0793 36.565 48.7539 35.9733L48.5764 35.6775C47.9256 34.5533 46.8901 33.7842 45.6476 33.4588C44.3756 33.1038 43.0739 33.2813 41.9793 33.9321L39.2872 35.5C38.0743 36.1804 37.2164 37.3046 36.8614 38.6358C36.5064 39.9967 36.6839 41.3871 37.3643 42.6C37.6897 43.1325 37.6897 43.4579 37.6897 43.5171C37.6601 43.5467 37.3643 43.7242 36.7135 43.7242C33.8439 43.7242 31.5068 46.0613 31.5068 48.9013V51.0608H28.8148C23.9336 51.0608 19.9398 47.0671 19.9398 42.1858V28.8141C19.9398 23.9329 23.9336 19.9391 28.8148 19.9391H42.1864C47.0676 19.9391 51.0614 23.9329 51.0614 28.8141Z" fill="#02162F"/>
<path id="Vector_3" d="M26.8041 8.13541V11.8333H26.6266C25.1475 11.8333 23.7275 12.0404 22.3666 12.4546V8.13541C22.3666 6.92249 23.3429 5.91666 24.5854 5.91666C25.7983 5.91666 26.8041 6.92249 26.8041 8.13541Z" fill="#02162F"/>
<path id="Vector_4" d="M37.7188 8.13541V11.8333H33.2812V8.13541C33.2812 6.92249 34.2871 5.91666 35.5 5.91666C36.7129 5.91666 37.7188 6.92249 37.7188 8.13541Z" fill="#02162F"/>
<path id="Vector_5" d="M48.6622 8.13541V12.4546C47.3014 12.0404 45.8518 11.8333 44.3726 11.8333H44.2247V8.13541C44.2247 6.92249 45.2306 5.91666 46.4435 5.91666C47.6564 5.91666 48.6622 6.92249 48.6622 8.13541Z" fill="#02162F"/>
<path id="Vector_6" d="M65.0806 24.5543C65.0806 25.7968 64.1044 26.7731 62.8619 26.7731H59.164V26.6252C59.164 25.146 58.9569 23.6964 58.5427 22.3356H62.8619C64.1044 22.3356 65.0806 23.3414 65.0806 24.5543Z" fill="#02162F"/>
<path id="Vector_7" d="M26.8041 59.1667V62.8646C26.8041 64.0775 25.7983 65.0833 24.5854 65.0833C23.3429 65.0833 22.3666 64.0775 22.3666 62.8646V58.5454C23.7275 58.9596 25.1475 59.1667 26.6266 59.1667H26.8041Z" fill="#02162F"/>
<path id="Vector_8" d="M12.4546 22.3356C12.0404 23.6964 11.8334 25.146 11.8334 26.6252V26.7731H8.13544C6.92252 26.7731 5.91669 25.7968 5.91669 24.5543C5.91669 23.3414 6.92252 22.3356 8.13544 22.3356H12.4546Z" fill="#02162F"/>
<path id="Vector_9" d="M11.8334 33.2812V37.7188H8.13544C6.92252 37.7188 5.91669 36.7129 5.91669 35.5C5.91669 34.2575 6.92252 33.2812 8.13544 33.2812H11.8334Z" fill="#02162F"/>
<path id="Vector_10" d="M12.4546 48.6646H8.13544C6.92252 48.6646 5.91669 47.6587 5.91669 46.4458C5.91669 45.2033 6.92252 44.2271 8.13544 44.2271H11.8334V44.375C11.8334 45.8542 12.0404 47.3038 12.4546 48.6646Z" fill="#02162F"/>
<path id="Vector_11" opacity="0.4" d="M62.0966 45.9429C60.0849 45.9429 58.9312 44.9371 58.9312 43.4579C58.9312 42.8662 59.1087 42.1858 59.5229 41.4758C60.3512 40.0558 59.8483 38.2217 58.4283 37.4229L55.7362 35.855C54.4937 35.1154 52.8962 35.5592 52.1566 36.8017L51.9791 37.0975C50.5591 39.5529 48.2516 39.5529 46.8316 37.0975L46.6541 36.8017C45.9441 35.5592 44.317 35.1154 43.1041 35.855L40.3824 37.4229C39.4358 37.9554 38.8737 38.9612 38.8737 39.9967C38.8737 40.4996 39.0216 41.0025 39.2879 41.4758C39.702 42.1858 39.9091 42.8662 39.9091 43.4579C39.9091 44.9371 38.7258 45.9429 36.7141 45.9429C35.087 45.9429 33.7262 47.2742 33.7262 48.9012V51.6821C33.7262 53.3092 35.087 54.6404 36.7141 54.6404C38.7258 54.6404 39.9091 55.6462 39.9091 57.1254C39.9091 57.7171 39.702 58.3975 39.2879 59.1075C38.4595 60.5275 38.9624 62.3617 40.3824 63.1604L43.1041 64.7283C44.317 65.4679 45.9441 65.0242 46.6541 63.7817L46.8316 63.4858C48.2516 61.0304 50.5591 61.0304 51.9791 63.4858L52.1566 63.7817C52.8962 65.0242 54.4937 65.4679 55.7362 64.7283L58.4283 63.1604C59.375 62.6279 59.937 61.6221 59.937 60.5867C59.937 60.0837 59.7891 59.5808 59.5229 59.1075C59.1087 58.3975 58.9312 57.7171 58.9312 57.1254C58.9312 55.6462 60.0849 54.6404 62.0966 54.6404C63.7533 54.6404 65.0845 53.3092 65.0845 51.6821V48.9012C65.0845 47.2742 63.7533 45.9429 62.0966 45.9429ZM49.4054 55.38C46.5949 55.38 44.317 53.1021 44.317 50.2917C44.317 47.4812 46.5949 45.2033 49.4054 45.2033C52.2158 45.2033 54.4937 47.4812 54.4937 50.2917C54.4937 53.1021 52.2158 55.38 49.4054 55.38Z" fill="#0A84FF"/>
<path id="Vector_12" d="M54.494 50.2917C54.494 53.1021 52.2161 55.38 49.4057 55.38C46.5952 55.38 44.3173 53.1021 44.3173 50.2917C44.3173 47.4813 46.5952 45.2033 49.4057 45.2033C52.2161 45.2033 54.494 47.4813 54.494 50.2917Z" fill="#02162F"/>
</g>
</svg>
