<svg width="23" height="23" viewBox="0 0 23 23" fill="none" xmlns="http://www.w3.org/2000/svg">
<g id="GEO_SVG">
<path id="Vector" fill-rule="evenodd" clip-rule="evenodd" d="M5.75 5.75002C5.7501 4.64347 6.06949 3.56045 6.66985 2.63092C7.2702 1.70139 8.12602 0.964826 9.1346 0.50962C10.1432 0.0544137 11.2617 -0.100102 12.3559 0.0646129C13.4501 0.229328 14.4736 0.706277 15.3035 1.43823C16.1333 2.17018 16.7344 3.12605 17.0345 4.19113C17.3346 5.2562 17.321 6.38525 16.9953 7.4428C16.6697 8.50034 16.0458 9.44145 15.1985 10.1532C14.3513 10.865 13.3166 11.3171 12.2188 11.4555V19.4063C12.2188 19.5969 12.143 19.7797 12.0082 19.9145C11.8734 20.0493 11.6906 20.125 11.5 20.125C11.3094 20.125 11.1266 20.0493 10.9918 19.9145C10.857 19.7797 10.7812 19.5969 10.7812 19.4063V11.4569C9.39114 11.2818 8.1128 10.6051 7.18637 9.55398C6.25994 8.50288 5.74917 7.15112 5.75 5.75002ZM9.33369 18.0751C9.36486 18.2631 9.32014 18.4557 9.20936 18.6107C9.09857 18.7657 8.93079 18.8704 8.74287 18.9017C7.71937 19.0713 6.90287 19.3258 6.36381 19.6104C6.16579 19.7056 5.98582 19.8345 5.83194 19.9913C5.79715 20.0292 5.7694 20.073 5.75 20.1207V20.125L5.75287 20.1365C5.75853 20.1532 5.76626 20.1692 5.77588 20.184C5.83261 20.2671 5.9031 20.3401 5.98431 20.3996C6.2215 20.5865 6.60962 20.7877 7.153 20.9674C8.23256 21.3268 9.76925 21.5625 11.5 21.5625C13.2308 21.5625 14.7674 21.3282 15.847 20.9674C16.3904 20.7863 16.7785 20.5865 17.0157 20.3996C17.0974 20.3401 17.1684 20.2672 17.2256 20.184C17.2347 20.1691 17.2419 20.1532 17.2471 20.1365L17.25 20.125V20.1193C17.2306 20.0716 17.2028 20.0278 17.1681 19.9899C17.0141 19.8335 16.8341 19.7051 16.6362 19.6104C16.0957 19.3258 15.2806 19.0713 14.2571 18.9017C14.1618 18.8888 14.07 18.8569 13.9872 18.8078C13.9045 18.7588 13.8324 18.6936 13.7753 18.6162C13.7181 18.5388 13.6772 18.4507 13.6547 18.3571C13.6323 18.2635 13.6288 18.1664 13.6446 18.0715C13.6604 17.9766 13.6951 17.8859 13.7466 17.8046C13.7981 17.7233 13.8654 17.6533 13.9445 17.5985C14.0236 17.5437 14.1129 17.5054 14.2071 17.4858C14.3013 17.4662 14.3985 17.4657 14.4929 17.4843C15.5997 17.6669 16.5801 17.9558 17.3061 18.3382C17.9687 18.6875 18.6875 19.2625 18.6875 20.125C18.6875 20.7374 18.3138 21.206 17.9055 21.5295C17.4886 21.8572 16.928 22.1231 16.3013 22.3316C15.0391 22.7528 13.3414 23 11.5 23C9.65856 23 7.96087 22.7528 6.69875 22.3316C6.072 22.1231 5.51137 21.8572 5.0945 21.5295C4.68625 21.206 4.3125 20.7374 4.3125 20.125C4.3125 19.264 5.03125 18.6875 5.69394 18.3382C6.41987 17.9558 7.40025 17.6669 8.50713 17.4843C8.69507 17.4532 8.8877 17.4979 9.04269 17.6087C9.19768 17.7194 9.30234 17.8872 9.33369 18.0751Z" fill="black"/>
</g>
</svg>
