<svg width="35" height="35" viewBox="0 0 35 35" fill="none" xmlns="http://www.w3.org/2000/svg">
<g id="Group">
<path id="Vector" d="M9.33335 0H6.41669V2.91667H9.33335V0Z" fill="black"/>
<path id="Vector_2" d="M12.8333 0H9.33334V2.91667H12.8333V0Z" fill="black"/>
<path id="Vector_3" d="M15.75 0H12.8333V2.91667H15.75V0Z" fill="black"/>
<path id="Vector_4" d="M9.33335 19.25H6.41669V22.1666H9.33335V19.25Z" fill="black"/>
<path id="Vector_5" d="M12.8333 19.25H9.33334V22.1666H12.8333V19.25Z" fill="black"/>
<path id="Vector_6" d="M15.75 19.25H12.8333V22.1666H15.75V19.25Z" fill="black"/>
<path id="Vector_7" d="M19.25 2.91666H15.75V6.41666H19.25V2.91666Z" fill="black"/>
<path id="Vector_8" d="M6.41666 2.91666H2.91666V6.41666H6.41666V2.91666Z" fill="black"/>
<path id="Vector_9" d="M19.25 15.75H15.75V19.25H19.25V15.75Z" fill="black"/>
<path id="Vector_10" d="M22.1666 19.25H19.25V22.1666H22.1666V19.25Z" fill="black"/>
<path id="Vector_11" d="M19.25 19.25H15.75V22.1666H19.25V19.25Z" fill="black"/>
<path id="Vector_12" d="M22.1666 15.75H19.25V19.25H22.1666V15.75Z" fill="black"/>
<path id="Vector_13" d="M25.6667 22.1667H22.1667V25.6667H25.6667V22.1667Z" fill="black"/>
<path id="Vector_14" d="M22.1666 22.1667H19.25V25.6667H22.1666V22.1667Z" fill="black"/>
<path id="Vector_15" d="M25.6667 19.25H22.1667V22.1666H25.6667V19.25Z" fill="black"/>
<path id="Vector_16" d="M28.5833 25.6667H25.6667V28.5833H28.5833V25.6667Z" fill="black"/>
<path id="Vector_17" d="M25.6667 25.6667H22.1667V28.5833H25.6667V25.6667Z" fill="black"/>
<path id="Vector_18" d="M28.5833 22.1667H25.6667V25.6667H28.5833V22.1667Z" fill="black"/>
<path id="Vector_19" d="M32.0833 28.5833H28.5833V32.0833H32.0833V28.5833Z" fill="black"/>
<path id="Vector_20" d="M28.5833 28.5833H25.6667V32.0833H28.5833V28.5833Z" fill="black"/>
<path id="Vector_21" d="M32.0833 25.6667H28.5833V28.5833H32.0833V25.6667Z" fill="black"/>
<path id="Vector_22" d="M35 32.0833H32.0833V35H35V32.0833Z" fill="black"/>
<path id="Vector_23" d="M32.0833 32.0833H28.5833V35H32.0833V32.0833Z" fill="black"/>
<path id="Vector_24" d="M35 28.5833H32.0833V32.0833H35V28.5833Z" fill="black"/>
<path id="Vector_25" d="M6.41666 15.75H2.91666V19.25H6.41666V15.75Z" fill="black"/>
<path id="Vector_26" d="M2.91667 6.41669H0V9.33335H2.91667V6.41669Z" fill="black"/>
<path id="Vector_27" d="M2.91667 9.33334H0V12.8333H2.91667V9.33334Z" fill="black"/>
<path id="Vector_28" d="M2.91667 12.8333H0V15.75H2.91667V12.8333Z" fill="black"/>
<path id="Vector_29" d="M22.1666 6.41669H19.25V9.33335H22.1666V6.41669Z" fill="black"/>
<path id="Vector_30" d="M22.1666 9.33334H19.25V12.8333H22.1666V9.33334Z" fill="black"/>
<path id="Vector_31" d="M22.1666 12.8333H19.25V15.75H22.1666V12.8333Z" fill="black"/>
</g>
</svg>
