<svg width="38" height="38" viewBox="0 0 38 38" fill="none" xmlns="http://www.w3.org/2000/svg">
<g id="Group">
<path id="Vector" d="M31.995 5.46701C28.4744 1.94345 23.7924 0.00198047 18.8039 0C8.52571 0 0.160468 8.36205 0.156355 18.6404C0.155035 21.9259 1.0137 25.133 2.6455 27.9598L0 37.6199L9.88533 35.0277C12.609 36.5127 15.6755 37.2954 18.7965 37.2967H18.8042C29.0814 37.2967 37.4474 28.9336 37.4516 18.6552C37.4536 13.6742 35.5157 8.99057 31.995 5.46701ZM18.8042 34.1483H18.7978C16.0167 34.1472 13.2889 33.4003 10.9093 31.9886L10.3433 31.6529L4.47718 33.1912L6.04297 27.4736L5.67435 26.8874C4.12288 24.4205 3.30347 21.5691 3.30469 18.6416C3.30804 10.0987 10.261 3.14844 18.8102 3.14844C22.9499 3.15001 26.8414 4.76384 29.7677 7.69245C32.694 10.6211 34.3046 14.514 34.3031 18.654C34.2997 27.1976 27.3469 34.1483 18.8042 34.1483ZM27.3057 22.544C26.8397 22.3109 24.549 21.184 24.1219 21.0286C23.6948 20.8731 23.3843 20.7954 23.0735 21.2618C22.763 21.728 21.8701 22.7772 21.5982 23.088C21.3264 23.3989 21.0546 23.4378 20.5887 23.2046C20.1227 22.9715 18.6214 22.4796 16.8418 20.8928C15.4567 19.6578 14.5215 18.1324 14.2497 17.666C13.9779 17.1997 14.2208 16.9476 14.4541 16.7154C14.6636 16.5067 14.92 16.1713 15.153 15.8994C15.3859 15.6274 15.4636 15.433 15.6189 15.1222C15.7742 14.8113 15.6965 14.5393 15.58 14.3061C15.4636 14.073 14.5317 11.7803 14.1434 10.8477C13.7653 9.93946 13.3811 10.0624 13.0951 10.0481C12.8236 10.0346 12.5127 10.0317 12.2021 10.0317C11.8915 10.0317 11.3867 10.1483 10.9596 10.6146C10.5325 11.0809 9.32887 12.2078 9.32887 14.5004C9.32887 16.7931 10.9984 19.008 11.2314 19.3188C11.4644 19.6297 14.5169 24.3345 19.1909 26.3521C20.3026 26.832 21.1704 27.1186 21.8472 27.3333C22.9633 27.6877 23.9791 27.6377 24.782 27.5179C25.6771 27.3841 27.5386 26.3911 27.9269 25.303C28.3152 24.2149 28.3152 23.2824 28.1987 23.0881C28.0822 22.8938 27.7717 22.7772 27.3057 22.544Z" fill="white"/>
</g>
</svg>
