<svg width="104" height="104" viewBox="0 0 104 104" fill="none" xmlns="http://www.w3.org/2000/svg">
<g id="guarantee-svgrepo-com (1) 1">
<g id="Group">
<g id="Group_2">
<path id="Vector" d="M58.6867 68.664C71.6115 68.664 82.089 58.1864 82.089 45.2617C82.089 32.3369 71.6115 21.8594 58.6867 21.8594C45.762 21.8594 35.2844 32.3369 35.2844 45.2617C35.2844 58.1864 45.762 68.664 58.6867 68.664Z" fill="#F9BA48"/>
<path id="Vector_2" d="M93.4073 6.81511C81.6728 6.81511 70.2007 4.60522 59.3086 0.249268L58.6866 0L58.0665 0.248911C47.1729 4.60522 35.7005 6.81475 23.966 6.81475H20.2398V41.9184H11.882C9.11726 41.9184 6.86743 44.1682 6.86743 46.933V75.3502C6.86743 78.115 9.11726 80.3652 11.882 80.3652H26.9262C26.9294 80.3652 26.9312 80.3652 26.9344 80.3652C30.8827 86.6386 36.3538 91.8205 42.8765 95.3762L58.6863 104L74.4961 95.3762C88.4604 87.7605 97.1327 73.1489 97.1327 57.2439V6.81511H93.4073ZM10.2103 75.3502V46.933C10.2103 46.0119 10.9591 45.2616 11.8817 45.2616H26.9258C27.8484 45.2616 28.5972 46.0122 28.5972 46.933V75.3502C28.5972 76.2713 27.8484 77.022 26.9258 77.022H11.882C10.9591 77.022 10.2103 76.2713 10.2103 75.3502ZM31.9411 50.2615C37.5227 49.9591 41.9707 45.3218 41.9707 39.6671V31.0533C41.9707 28.75 43.8447 26.8742 46.1498 26.8742C48.4549 26.8742 50.3288 28.7496 50.3288 31.0533V41.5743C50.3288 44.5294 52.7327 46.9333 55.6879 46.9333H67.9423C71.1333 46.9333 73.7311 49.5294 73.7311 52.7221V71.2332C73.7311 74.4259 71.1336 77.022 67.9423 77.022H43.313C41.9857 77.022 40.7554 76.3616 40.0183 75.2586C38.661 73.2227 36.3891 72.0074 33.9421 72.0074H31.9411V50.2615ZM93.7899 57.2435C93.7899 71.9236 85.7848 85.4115 72.8967 92.4406L58.6866 100.192L44.4766 92.4406C38.661 89.2679 33.7466 84.6994 30.1328 79.1731C31.1473 78.3204 31.8145 77.0837 31.908 75.6794C35.2811 81.4981 40.1388 86.2656 46.0781 89.505L58.687 96.3836L71.2959 89.505C83.1092 83.0626 90.4474 70.7012 90.4474 57.245V31.8888H87.1042V57.2453C87.1042 69.4762 80.4346 80.7147 69.6961 86.5701L58.687 92.5747L47.6778 86.5701C42.9674 84.0008 39.0105 80.3702 36.0368 75.9771C36.5032 76.2696 36.9212 76.6408 37.2371 77.114C38.5943 79.1499 40.8663 80.3652 43.3133 80.3652H67.9427C72.9791 80.3652 77.0747 76.2681 77.0747 71.2332V52.7221C77.0747 47.6872 72.9794 43.5901 67.9427 43.5901H55.6883C54.5767 43.5901 53.6724 42.6858 53.6724 41.5743V31.0533C53.6724 26.906 50.2975 23.531 46.1501 23.531C42.0028 23.531 38.6279 26.906 38.6279 31.0533V39.6653C38.6279 43.4767 35.6709 46.5757 31.9347 46.8749C31.918 45.4224 31.2743 44.1283 30.2697 43.2225V16.6525C39.9783 16.0558 49.5283 14.0717 58.6866 10.7449C67.8454 14.0713 77.3935 16.0555 87.1035 16.6525V18.5164H90.4467V13.4715L88.852 13.3981C78.7322 12.9352 68.7779 10.9157 59.2665 7.39709L58.6863 7.18134L58.1061 7.39531C48.5929 10.9139 38.6386 12.9334 28.5206 13.3963L26.9258 13.4715V41.9187H23.5826V10.1583H23.9653C35.9055 10.1583 47.5815 7.95161 58.6859 3.59887C69.7903 7.95161 81.4663 10.1583 93.4065 10.1583H93.7892L93.7899 57.2435Z" fill="white"/>
<path id="Vector_3" d="M90.4467 25.2024H87.1035V28.5456H90.4467V25.2024Z" fill="white"/>
<path id="Vector_4" d="M25.2544 70.3357H13.5535V73.6789H25.2544V70.3357Z" fill="white"/>
</g>
</g>
</g>
</svg>
