<svg width="104" height="104" viewBox="0 0 104 104" fill="none" xmlns="http://www.w3.org/2000/svg">
<g id="guarantee-svgrepo-com 2" clip-path="url(#clip0_134_1995)">
<g id="Group">
<path id="Vector" d="M35.7706 2.48584C31.447 2.48584 27.9661 5.96659 27.9661 10.2904V93.7097C27.9661 96.2338 29.1534 98.4694 31.0011 99.8942V16.1439H104V10.2904C104 5.96681 100.519 2.48584 96.1955 2.48584H35.7706Z" fill="#D2D7D3"/>
<g id="Group_2">
<path id="Vector_2" d="M21.7875 2.48584H82.2125C86.5361 2.48584 90.0171 5.96659 90.0171 10.2904V93.7097C90.0171 98.0332 86.5363 101.514 82.2125 101.514H21.7875C17.4639 101.514 13.9829 98.0335 13.9829 93.7097V10.2904C13.9831 5.96681 17.4639 2.48584 21.7875 2.48584Z" fill="#ECF0F1"/>
<path id="Vector_3" d="M23.7388 2.48584H90.0171V91.1081H23.7388V2.48584Z" fill="#ECF0F1"/>
<path id="Vector_4" d="M90.017 2.48584V10.2904C90.017 6.24132 93.0696 2.93195 97.0086 2.52787C96.7415 2.50035 96.4702 2.48605 96.1957 2.48605L90.017 2.48584ZM27.9661 91.1081V93.7097C27.9661 96.2338 29.1534 98.4694 31.0011 99.8942V91.1081H27.9661Z" fill="#ECF0F1"/>
</g>
<g id="Group_3">
<path id="Vector_5" d="M0 87.8562V93.7096C0 98.0332 3.48075 101.514 7.80455 101.514H68.2296C72.5532 101.514 76.0342 98.0334 76.0342 93.7096V87.8481L0 87.8562Z" fill="#D2D7D3"/>
<path id="Vector_6" d="M76.0339 101.514V93.7095C76.0339 97.7585 79.0866 101.068 83.0256 101.472C82.7584 101.499 82.4871 101.514 82.2126 101.514L76.0339 101.514Z" fill="#D2D7D3"/>
<path id="Vector_7" d="M62.0457 91.9714H76.0339V101.514H62.0457V91.9714Z" fill="#D2D7D3"/>
</g>
<path id="Vector_8" d="M31.7413 12.5781C31.6462 12.5809 31.5565 12.6221 31.4924 12.6925L30.604 13.6673L28.8722 13.6292C28.7273 13.6259 28.5953 13.7124 28.5403 13.8465L28.0385 15.0659L26.3981 15.6227C26.261 15.6693 26.1667 15.7952 26.1606 15.9399L26.1065 17.2581L24.7553 18.3417C24.6425 18.4324 24.597 18.5835 24.6409 18.7215L24.6893 18.8736L24.5725 18.9672L24.9447 20.1368L24.142 21.4591C24.0668 21.583 24.0754 21.7403 24.1641 21.8549L24.1764 21.8709L24.0139 22.139L24.8942 23.2802L24.6316 24.5979C24.6154 24.6785 24.6282 24.7624 24.6676 24.8345L24.5727 25.311L25.882 26.1404L26.1834 28.1003L27.697 28.4318L28.6463 30.1632L28.6809 39.848L33.3031 34.336L37.9989 39.8476V39.848L37.9638 30.0746L38.5139 28.7371L40.3917 28.1003L40.4557 26.5518L42.0024 25.3108L41.869 24.8911V24.8906C41.9457 24.7988 41.9699 24.674 41.9338 24.56L41.6436 23.6496L42.5612 22.1388L42.3816 21.9063L42.4323 21.8224C42.5075 21.6985 42.4988 21.5412 42.4102 21.4266L41.6959 20.5005L42.0016 18.967L41.8995 18.9022L41.9431 18.6838C41.9715 18.5417 41.9093 18.3967 41.7869 18.3191L40.6723 17.6132L40.4093 15.9013C40.3872 15.7581 40.2795 15.6433 40.1378 15.6121L38.8493 15.3298L38.0169 13.8114C37.9471 13.684 37.8063 13.6129 37.6624 13.6322L36.3553 13.8079L35.0533 12.6654C34.9443 12.5699 34.7879 12.5513 34.6596 12.6184L33.4914 13.2303L31.8772 12.602C31.8334 12.5851 31.7868 12.5768 31.74 12.5783L31.7413 12.5781Z" fill="#D2D5D6"/>
<path id="Vector_9" d="M28.6289 25.2429H37.9467L37.9991 39.8478L33.3033 34.3355L28.6813 39.8478L28.6289 25.2429Z" fill="#3498DB"/>
<path id="Vector_10" d="M33.2859 25.2429L33.3013 34.3379L33.3034 34.3355L37.9993 39.8478L37.9468 25.2429H33.2859Z" fill="#2980B9"/>
<path id="Vector_11" d="M33.2856 25.2429L33.295 30.6477L34.8979 31.2719L35.9422 30.1264L37.9247 30.1699L37.9641 30.0744L37.9468 25.2429H33.2856Z" fill="#2D72A0"/>
<path id="Vector_12" d="M33.3076 25.2429L33.2983 30.6477L31.6954 31.2719L30.6511 30.1264L28.6686 30.1699L28.6292 30.0744L28.6465 25.2429H33.3076Z" fill="#3686BB"/>
<g id="Group_4">
<path id="Vector_13" d="M31.7414 12.5783C31.6465 12.5811 31.5566 12.6222 31.4927 12.6924L30.6039 13.6674L28.8723 13.6289C28.7274 13.6258 28.5954 13.7123 28.5406 13.8464L28.0388 15.066L26.3986 15.6224C26.2615 15.669 26.1672 15.7951 26.1612 15.9398L26.107 17.2576L24.7559 18.3414C24.643 18.4322 24.5973 18.5829 24.6412 18.721L25.0412 19.9779L24.1425 21.4585C24.0673 21.5825 24.076 21.7398 24.1646 21.8546L24.9704 22.899L24.6317 24.5976C24.6035 24.7398 24.6655 24.8845 24.7879 24.962L25.9022 25.668L26.1655 27.3801C26.1876 27.5233 26.2953 27.6381 26.4368 27.6691L27.7253 27.9514L28.5581 29.4702C28.6279 29.5972 28.7685 29.6681 28.912 29.6488L30.2191 29.4735L31.5213 30.6155C31.6303 30.7109 31.7865 30.7297 31.9147 30.6626L33.0832 30.0507L34.6972 30.6786C34.8322 30.7312 34.9858 30.6955 35.0835 30.5884L35.9723 29.6134L37.7039 29.652C37.8488 29.6551 37.9808 29.5686 38.0356 29.4345L38.5369 28.2149L40.1771 27.6585C40.3143 27.6121 40.4089 27.4858 40.415 27.3411L40.4692 26.0233L41.8203 24.9395C41.9332 24.8487 41.9789 24.6979 41.9349 24.5599L41.535 23.303L42.4337 21.8223C42.5089 21.6984 42.5002 21.5411 42.4116 21.4263L41.6058 20.3819L41.9445 18.6833C41.9726 18.5411 41.9107 18.3964 41.7882 18.3188L40.6739 17.6129L40.4107 15.9008C40.3886 15.7576 40.2809 15.6428 40.1394 15.6118L38.8509 15.3295L38.018 13.8107C37.9483 13.6837 37.8076 13.6128 37.6642 13.6321L36.3571 13.8074L35.0549 12.6654C34.9927 12.6108 34.9134 12.5798 34.8306 12.5783C34.7715 12.5772 34.7132 12.591 34.661 12.6186L33.4929 13.2304L31.8786 12.6025C31.8348 12.5852 31.7882 12.577 31.7414 12.5783Z" fill="#FFB61C"/>
<path id="Vector_14" d="M33.2875 14.9219C29.5825 14.9219 26.5691 17.9353 26.5691 21.6403C26.5691 25.3453 29.5825 28.3587 33.2875 28.3587C36.9925 28.3587 40.0059 25.3453 40.0059 21.6403C40.0059 17.9353 36.9925 14.9219 33.2875 14.9219Z" fill="#F39C12"/>
<path id="Vector_15" d="M33.2876 15.8569C36.4874 15.8569 39.0711 18.4407 39.0711 21.6404C39.0711 24.8401 36.4874 27.4239 33.2876 27.4239C30.0879 27.4239 27.5042 24.8401 27.5042 21.6404C27.5042 18.4407 30.0879 15.8569 33.2876 15.8569Z" fill="#FCD116"/>
</g>
<path id="Vector_16" d="M33.2876 15.8489C30.0892 15.8489 27.4966 18.4417 27.4966 21.6399C27.4966 24.8384 30.0894 27.431 33.2876 27.431C36.4861 27.431 39.0787 24.8382 39.0787 21.6399C39.0787 18.4417 36.4859 15.8489 33.2876 15.8489ZM33.2876 16.1763C36.3054 16.1763 38.7518 18.6224 38.752 21.6402C38.752 24.6579 36.3058 27.1043 33.2881 27.1045H33.2876C30.2699 27.1043 27.8238 24.6579 27.8238 21.6402C27.824 18.6224 30.2701 16.1763 33.2876 16.1763Z" fill="#E9C31A"/>
<g id="Group_5">
<path id="Vector_17" d="M47.4678 14.4849H79.9864V16.8695H47.4678V14.4849Z" fill="#D2D7D3"/>
<path id="Vector_18" d="M47.4678 25.1292H79.9864V27.5138H47.4678V25.1292Z" fill="#D2D7D3"/>
<path id="Vector_19" d="M47.4678 35.7732H79.9864V38.1578H47.4678V35.7732Z" fill="#D2D7D3"/>
<path id="Vector_20" d="M24.0137 46.4175H79.9865V48.8021H24.0137V46.4175Z" fill="#D2D7D3"/>
<path id="Vector_21" d="M24.0137 57.0615H79.9865V59.4462H24.0137V57.0615Z" fill="#D2D7D3"/>
<path id="Vector_22" d="M24.0137 67.7058H79.9865V70.0904H24.0137V67.7058Z" fill="#D2D7D3"/>
<path id="Vector_23" d="M69.147 78.3499H79.9866V80.7345H69.147V78.3499Z" fill="#D2D7D3"/>
</g>
<g id="Group_6">
<path id="Vector_24" d="M25.7894 61.3352C25.2935 61.3785 24.967 61.8504 25.009 62.3314L26.0234 73.9274C26.0655 74.4082 26.4689 74.8164 26.9649 74.7729L79.2346 70.1999C79.7306 70.1566 80.0571 69.6847 80.015 69.2037L79.0006 57.6077C78.9586 57.1269 78.5551 56.7187 78.0592 56.7622L25.7894 61.3352ZM25.8562 62.0979L78.1259 57.5249C78.1612 57.5219 78.2273 57.5576 78.2377 57.6746L79.2522 69.2706C79.2623 69.3874 79.2036 69.4338 79.1681 69.437L26.8983 74.01C26.863 74.013 26.7965 73.9777 26.7863 73.8609L25.7719 62.2649C25.7615 62.1479 25.8209 62.1011 25.8562 62.0979Z" fill="#BDC0C1"/>
<path id="Vector_25" d="M29.9543 67.3617L31.4779 67.2284C31.8415 67.6065 32.0432 68.0212 32.0827 68.4728C32.1286 68.9977 31.9743 69.4556 31.6196 69.8462C31.2678 70.2366 30.8108 70.4566 30.2492 70.5055C29.5197 70.5694 28.876 70.3467 28.3183 69.8375C27.7606 69.3284 27.4471 68.676 27.3775 67.8808C27.3078 67.0831 27.5082 66.3964 27.9788 65.821C28.452 65.2453 29.0771 64.9235 29.854 64.8555C30.119 64.8323 30.4178 64.8605 30.7499 64.9398L30.8897 66.5381C30.6273 66.4422 30.3927 66.4032 30.1853 66.4214C29.81 66.4541 29.5132 66.5979 29.2948 66.8523C29.079 67.1067 28.9874 67.42 29.0201 67.7926C29.0534 68.1731 29.1899 68.4654 29.43 68.6693C29.6701 68.8732 29.9775 68.9585 30.353 68.9258C30.5918 68.905 30.7051 68.8248 30.693 68.6857C30.6836 68.5809 30.6004 68.5352 30.4429 68.549L30.0612 68.5824L29.9543 67.3617Z" fill="#BDC0C1"/>
<path id="Vector_26" d="M36.624 64.3979L36.9289 67.882C36.9826 68.496 36.8418 69.003 36.5066 69.4025C36.174 69.8018 35.7032 70.0282 35.0944 70.0815C34.4881 70.1346 34.008 69.9968 33.654 69.6682C33.3025 69.3393 33.0976 68.84 33.0391 68.171L32.7388 64.7381L34.3371 64.5984L34.6372 68.0273C34.6658 68.3554 34.7971 68.5092 35.0307 68.4888C35.2564 68.4691 35.3548 68.2951 35.3262 67.9671L35.0261 64.5381L36.624 64.3979Z" fill="#BDC0C1"/>
<path id="Vector_27" d="M40.2193 66.7811L40.3432 68.1983L39.8826 68.2386L39.9946 69.518L38.3963 69.6578L38.0973 66.2407C38.0394 65.5792 38.1742 65.0506 38.502 64.6543C38.832 64.2552 39.3238 64.027 39.9773 63.9698C40.6071 63.9148 41.0877 64.0407 41.4185 64.3475C41.7494 64.6517 41.945 65.1504 42.0055 65.8431L42.3093 69.3154L40.7109 69.4552L40.4165 66.0893C40.398 65.8793 40.3603 65.7359 40.3034 65.6588C40.2464 65.5818 40.1536 65.5489 40.0249 65.5602C39.7756 65.5821 39.6672 65.7792 39.6999 66.1519L39.7584 66.8212L40.2193 66.7811Z" fill="#BDC0C1"/>
<path id="Vector_28" d="M44.9644 65.1242L45.308 69.053L43.7097 69.1928L43.2395 63.819L45.2907 63.6396C45.9153 63.585 46.413 63.6975 46.784 63.977C47.1974 64.2898 47.4275 64.7128 47.474 65.2455C47.5215 65.7887 47.3241 66.2676 46.8817 66.6818L47.9969 68.8177L46.3199 68.9644L45.3927 67.3L45.2718 65.9181L45.3977 65.907C45.7338 65.8776 45.8974 65.6496 45.8638 65.4299C45.8285 65.1996 45.6361 65.0651 45.2478 65.0991L44.9644 65.1242Z" fill="#BDC0C1"/>
<path id="Vector_29" d="M50.6732 65.8665L50.7971 67.2838L50.3364 67.3241L50.4485 68.6035L48.8501 68.7432L48.5511 65.3262C48.4933 64.6647 48.628 64.136 48.9558 63.7397C49.2858 63.3406 49.7777 63.1125 50.4311 63.0553C51.061 63.0002 51.5415 63.1261 51.8724 63.4329C52.2032 63.7371 52.3989 64.2359 52.4593 64.9286L52.7631 68.4009L51.1648 68.5406L50.8703 65.1747C50.8519 64.9648 50.8142 64.8213 50.7572 64.7442C50.7002 64.6671 50.6075 64.6344 50.4788 64.6456C50.2294 64.6675 50.1211 64.8647 50.1538 65.2373L50.2123 65.9066L50.6732 65.8665Z" fill="#BDC0C1"/>
<path id="Vector_30" d="M54.0535 68.2879L53.7484 64.8C53.6949 64.1886 53.8344 63.6831 54.1672 63.2838C54.5024 62.8843 54.9745 62.6579 55.5836 62.6046C56.1898 62.5515 56.6687 62.6895 57.0201 63.0184C57.3741 63.3471 57.5804 63.8461 57.6389 64.5153L57.9392 67.9482L56.3408 68.088L56.0405 64.6551C56.0119 64.3271 55.8806 64.1732 55.6471 64.1936C55.4213 64.2133 55.3229 64.3873 55.3515 64.7153L55.6518 68.1482L54.0535 68.2879Z" fill="#BDC0C1"/>
<path id="Vector_31" d="M61.3547 63.7893L61.6899 67.6197L60.0915 67.7595L59.7563 63.929L58.532 64.036L58.397 62.4927L62.44 62.1389L62.575 63.6822L61.3547 63.7893Z" fill="#BDC0C1"/>
<path id="Vector_32" d="M66.5192 63.8891L66.6238 65.0859L65.5806 65.1771C65.4389 65.1895 65.3397 65.2194 65.2829 65.2666C65.2287 65.3136 65.2062 65.3871 65.2149 65.4868C65.2248 65.5996 65.2615 65.6718 65.3252 65.7032C65.3884 65.732 65.5134 65.7383 65.6998 65.7221L66.7744 65.628L66.9088 67.1633L65.653 67.2732C65.0626 67.3247 64.5987 67.224 64.262 66.9705C63.9248 66.7144 63.7331 66.3198 63.6863 65.7871L63.5021 63.6808C63.457 63.1665 63.5693 62.7546 63.8384 62.4454C64.1101 62.136 64.5137 61.9579 65.0491 61.9111L66.4388 61.7896L66.5738 63.3329L65.5542 63.4221C65.2786 63.4462 65.1486 63.5476 65.1642 63.7259C65.1733 63.8308 65.2125 63.9014 65.2818 63.9378C65.3509 63.9714 65.4695 63.9809 65.6374 63.9662L66.5192 63.8891Z" fill="#BDC0C1"/>
<path id="Vector_33" d="M70.8405 63.5109L70.9451 64.7077L69.9019 64.799C69.7602 64.8113 69.6609 64.8412 69.6042 64.8884C69.55 64.9355 69.5275 65.0089 69.5361 65.1086C69.5461 65.2215 69.5827 65.2936 69.6464 65.325C69.7097 65.3538 69.8347 65.3601 70.021 65.3439L71.0957 65.2498L71.23 66.7851L69.9742 66.895C69.3838 66.9466 68.9199 66.8458 68.583 66.5923C68.2459 66.3362 68.0541 65.9417 68.0073 65.4089L67.8232 63.3027C67.7781 62.7883 67.8903 62.3764 68.1594 62.0672C68.4311 61.7578 68.8348 61.5797 69.3702 61.5329L70.7599 61.4114L70.8948 62.9547L69.8752 63.044C69.5996 63.068 69.4696 63.1694 69.4852 63.3477C69.4943 63.4528 69.5335 63.5232 69.6029 63.5596C69.672 63.5932 69.7905 63.6027 69.9584 63.588L70.8405 63.5109Z" fill="#BDC0C1"/>
<path id="Vector_34" d="M73.8466 62.6965L74.1818 66.527L72.5835 66.6669L72.1133 61.2932L74.1959 61.1109C75.1091 61.031 75.8426 61.1757 76.3959 61.5451C77.0535 61.9874 77.4194 62.6337 77.4938 63.4841C77.565 64.2977 77.3605 64.9847 76.8806 65.545C76.4007 66.1053 75.7474 66.4217 74.9206 66.494C74.8236 66.5025 74.6643 66.5111 74.4429 66.52L74.3049 64.9414L74.5608 64.9191C75.4924 64.8376 75.9242 64.4071 75.856 63.6275C75.7919 62.8952 75.302 62.5693 74.3859 62.6493L73.8466 62.6965Z" fill="#BDC0C1"/>
</g>
<g id="Group_7">
<path id="Vector_35" d="M25.5146 61.1323C25.0186 61.1756 24.6923 61.6479 24.7343 62.1287L25.7488 73.7243C25.7908 74.2051 26.1942 74.6135 26.6902 74.5702L78.9597 69.9972C79.4557 69.9539 79.782 69.4815 79.74 69.0007L78.7255 57.4052C78.6835 56.9244 78.2801 56.516 77.7841 56.5593L25.5146 61.1323ZM25.5815 61.8952L77.8511 57.3222C77.8864 57.3192 77.9529 57.3549 77.9631 57.4717L78.9775 69.0673C78.9877 69.184 78.9285 69.2308 78.8932 69.2339L26.6237 73.8068C26.5884 73.8099 26.5223 73.7741 26.5121 73.6573L25.4974 62.062C25.4873 61.9452 25.546 61.8984 25.5815 61.8952Z" fill="#EA6153"/>
<path id="Vector_36" d="M29.7527 67.2045L31.2763 67.0712C31.6398 67.4493 31.8416 67.864 31.881 68.3155C31.9269 68.8405 31.7727 69.2983 31.418 69.689C31.0661 70.0794 30.6092 70.2993 30.0476 70.3483C29.318 70.4122 28.6743 70.1895 28.1166 69.6803C27.5589 69.1711 27.2454 68.5188 27.1759 67.7236C27.1061 66.9258 27.3065 66.2392 27.7771 65.6637C28.2503 65.0881 28.8754 64.7663 29.6524 64.6983C29.9173 64.6751 30.2161 64.7033 30.5483 64.7826L30.688 66.3809C30.4256 66.2849 30.191 66.2459 29.9836 66.2641C29.6084 66.2971 29.3115 66.4407 29.0931 66.6951C28.8773 66.9492 28.7857 67.2627 28.8184 67.6354C28.8518 68.0159 28.9883 68.3082 29.2283 68.512C29.4684 68.7159 29.7759 68.8013 30.1513 68.7686C30.3901 68.7478 30.5034 68.6676 30.4913 68.5285C30.482 68.4234 30.3988 68.3779 30.2413 68.3918L29.8595 68.4252L29.7527 67.2045Z" fill="#EA6153"/>
<path id="Vector_37" d="M36.4224 64.2407L36.7272 67.7247C36.781 68.3387 36.6401 68.8457 36.3049 69.2453C35.9724 69.6446 35.5015 69.871 34.8927 69.9243C34.2865 69.9774 33.8063 69.8396 33.4523 69.5109C33.1009 69.182 32.8959 68.6828 32.8374 68.0138L32.5371 64.5809L34.1355 64.4411L34.4355 67.8701C34.4641 68.1981 34.5954 68.352 34.829 68.3316C35.0548 68.3119 35.1531 68.1379 35.1245 67.8099L34.8245 64.3809L36.4224 64.2407Z" fill="#EA6153"/>
<path id="Vector_38" d="M40.0176 66.6238L40.1416 68.0411L39.6809 68.0814L39.7929 69.3608L38.1946 69.5005L37.8956 66.0835C37.8377 65.4222 37.9725 64.8933 38.3003 64.4971C38.6303 64.098 39.1221 63.8698 39.7756 63.8126C40.4055 63.7576 40.886 63.8835 41.2169 64.1903C41.5477 64.4945 41.7434 64.9932 41.8038 65.6859L42.1076 69.1582L40.5092 69.298L40.2148 65.932C40.1964 65.7221 40.1587 65.5787 40.1017 65.5015C40.0447 65.4246 39.952 65.3917 39.8233 65.4029C39.5739 65.4248 39.4656 65.622 39.4983 65.9947L39.5568 66.6639L40.0176 66.6238Z" fill="#EA6153"/>
<path id="Vector_39" d="M44.7627 64.967L45.1064 68.8958L43.508 69.0355L43.0378 63.6618L45.089 63.4824C45.7137 63.4278 46.2114 63.5402 46.5823 63.8197C46.9957 64.1326 47.2258 64.5555 47.2724 65.0883C47.3198 65.6315 47.1224 66.1103 46.68 66.5246L47.7952 68.6605L46.1182 68.8072L45.1911 67.1427L45.0702 65.7608L45.1961 65.7498C45.5321 65.7203 45.6875 65.5613 45.6621 65.2727C45.6398 65.0181 45.4344 64.9078 45.0461 64.9418L44.7627 64.967Z" fill="#EA6153"/>
<path id="Vector_40" d="M50.4715 65.7091L50.5954 67.1263L50.1348 67.1666L50.2468 68.446L48.6485 68.5857L48.3495 65.1687C48.2916 64.5074 48.4264 63.9785 48.7542 63.5823C49.0842 63.1832 49.576 62.955 50.2295 62.8978C50.8593 62.8428 51.3399 62.9687 51.6707 63.2755C52.0016 63.5797 52.1972 64.0784 52.2577 64.7711L52.5615 68.2434L50.9631 68.3831L50.6687 65.0172C50.6502 64.8073 50.6125 64.6639 50.5556 64.5867C50.4986 64.5098 50.4058 64.4769 50.2771 64.4881C50.0278 64.51 49.9194 64.7072 49.9521 65.0799L50.0106 65.7491L50.4715 65.7091Z" fill="#EA6153"/>
<path id="Vector_41" d="M53.8518 68.1307L53.5468 64.6428C53.4933 64.0314 53.6328 63.5259 53.9656 63.1266C54.3008 62.7271 54.7729 62.5006 55.3819 62.4473C55.9882 62.3943 56.467 62.5323 56.8184 62.8612C57.1725 63.1899 57.3787 63.6888 57.4372 64.3581L57.7375 67.791L56.1392 67.9307L55.8389 64.4979C55.8103 64.1698 55.679 64.016 55.4454 64.0364C55.2197 64.0561 55.1213 64.2301 55.1499 64.5581L55.4502 67.991L53.8518 68.1307Z" fill="#EA6153"/>
<path id="Vector_42" d="M61.153 63.6323L61.4882 67.4627L59.8899 67.6025L59.5547 63.772L58.3303 63.8791L58.1953 62.3357L62.2383 61.9819L62.3733 63.5252L61.153 63.6323Z" fill="#EA6153"/>
<path id="Vector_43" d="M66.3175 63.7318L66.4222 64.9287L65.3789 65.0199C65.2372 65.0323 65.138 65.0622 65.0812 65.1094C65.0271 65.1564 65.0045 65.2298 65.0132 65.3295C65.0232 65.4424 65.0598 65.5146 65.1235 65.546C65.1868 65.5748 65.3118 65.5811 65.4981 65.5648L66.5728 65.4708L66.7071 67.0061L65.4513 67.1159C64.8609 67.1675 64.397 67.0668 64.0603 66.8133C63.7232 66.5572 63.5314 66.1626 63.4846 65.6298L63.3005 63.5236C63.2554 63.0092 63.3676 62.5974 63.6367 62.2882C63.9084 61.9788 64.3121 61.8007 64.8475 61.7539L66.2372 61.6323L66.3721 63.1756L65.3525 63.2649C65.0769 63.289 64.9469 63.3904 64.9625 63.5687C64.9716 63.6738 65.0108 63.7442 65.0802 63.7806C65.1493 63.8142 65.2678 63.8237 65.4357 63.8089L66.3175 63.7318Z" fill="#EA6153"/>
<path id="Vector_44" d="M70.6388 63.3537L70.7435 64.5505L69.7002 64.6417C69.5585 64.6541 69.4593 64.684 69.4025 64.7312C69.3483 64.7782 69.3258 64.8517 69.3345 64.9513C69.3444 65.0642 69.3811 65.1364 69.4448 65.1678C69.508 65.1966 69.633 65.2029 69.8194 65.1866L70.894 65.0926L71.0284 66.6279L69.7726 66.7378C69.1822 66.7893 68.7183 66.6886 68.3813 66.4351C68.0442 66.179 67.8525 65.7844 67.8057 65.2516L67.6215 63.1454C67.5764 62.6311 67.6887 62.2192 67.9578 61.91C68.2295 61.6006 68.6331 61.4225 69.1685 61.3757L70.5582 61.2542L70.6932 62.7975L69.6736 62.8867C69.398 62.9108 69.2679 63.0122 69.2835 63.1905C69.2926 63.2956 69.3319 63.366 69.4012 63.4024C69.4703 63.436 69.5888 63.4455 69.7568 63.4308L70.6388 63.3537Z" fill="#EA6153"/>
<path id="Vector_45" d="M73.645 62.5392L73.9801 66.3697L72.3818 66.5095L71.9116 61.1357L73.9942 60.9535C74.9075 60.8735 75.6409 61.0182 76.1943 61.3877C76.8518 61.8299 77.2178 62.4762 77.2921 63.3266C77.3634 64.1402 77.1589 64.8272 76.6789 65.3875C76.199 65.9478 75.5458 66.2642 74.719 66.3365C74.6219 66.345 74.4627 66.3537 74.2412 66.3625L74.1032 64.7839L74.3591 64.7616C75.2908 64.6801 75.7226 64.2496 75.6543 63.47C75.5902 62.7377 75.1003 62.4118 74.1842 62.4918L73.645 62.5392Z" fill="#EA6153"/>
</g>
</g>
</g>
<defs>
<clipPath id="clip0_134_1995">
<rect width="104" height="104" fill="white"/>
</clipPath>
</defs>
</svg>
