<svg width="81" height="81" viewBox="0 0 81 81" fill="none" xmlns="http://www.w3.org/2000/svg">
<g id="settings-svgrepo-com (1) 1" clip-path="url(#clip0_134_2124)">
<path id="Vector" fill-rule="evenodd" clip-rule="evenodd" d="M79.0155 69.4316L36.7797 27.1949C33.0634 23.4795 39.2534 14.6092 32.1392 7.49574L19.1678 0L16.4292 2.7378L23.5831 9.89091C26.3218 12.6287 24.2708 18.7871 21.5217 21.5363C18.7944 24.2635 12.6303 26.3201 9.89253 23.5815L2.7378 16.4292L0 19.1678L7.49574 32.1392C14.5703 39.2145 23.5904 33.1735 27.1957 36.7797L69.4316 79.0163C70.7053 80.2743 72.425 80.9772 74.2152 80.9716C76.0054 80.966 77.7206 80.2524 78.9864 78.9865C80.2523 77.7205 80.9658 76.0052 80.9712 74.215C80.9767 72.4248 80.2736 70.7052 79.0155 69.4316ZM76.2769 76.2769C76.0072 76.5465 75.6871 76.7604 75.3348 76.9064C74.9825 77.0523 74.6049 77.1274 74.2235 77.1274C73.8422 77.1274 73.4646 77.0523 73.1123 76.9064C72.76 76.7604 72.4398 76.5465 72.1702 76.2769C71.9005 76.0072 71.6866 75.6871 71.5407 75.3348C71.3948 74.9825 71.3197 74.6049 71.3197 74.2235C71.3197 73.8422 71.3948 73.4646 71.5407 73.1123C71.6866 72.76 71.9005 72.4398 72.1702 72.1702C72.7148 71.6256 73.4534 71.3197 74.2235 71.3197C74.9937 71.3197 75.7323 71.6256 76.2769 72.1702C76.8215 72.7148 77.1274 73.4534 77.1274 74.2235C77.1274 74.9937 76.8215 75.7323 76.2769 76.2769Z" fill="#BDC3C7"/>
<path id="Vector_2" d="M27.2826 9.9906L18.2349 0.932373L16.4294 2.73786L23.5833 9.89097C26.3219 12.6288 24.271 18.7872 21.5218 21.5363C18.7946 24.2636 12.6305 26.3202 9.89266 23.5816L2.73793 16.4293L1.13818 18.029L10.1916 27.0929C11.426 28.3282 13.3619 28.9819 15.7895 28.9819C19.428 28.9819 23.4464 27.5044 25.5605 25.3879C29.1383 21.8077 30.6724 13.3821 27.2826 9.9906ZM77.5544 71.2387L37.0779 30.7574C36.2339 29.9134 35.1128 29.4492 33.9205 29.4492C32.7282 29.4492 31.6063 29.9142 30.7631 30.7574C29.9271 31.5958 29.4576 32.7315 29.4576 33.9156C29.4576 35.0996 29.9271 36.2353 30.7631 37.0738L71.2396 77.5543C72.0828 78.3983 73.2047 78.8625 74.397 78.8625C75.5893 78.8625 76.7112 78.3983 77.5544 77.5543C78.3906 76.7161 78.8602 75.5805 78.8602 74.3965C78.8602 73.2126 78.3906 72.0769 77.5544 71.2387ZM76.277 76.2769C76.0074 76.5466 75.6873 76.7605 75.3349 76.9064C74.9826 77.0524 74.605 77.1275 74.2237 77.1275C73.8423 77.1275 73.4647 77.0524 73.1124 76.9064C72.7601 76.7605 72.44 76.5466 72.1703 76.2769C71.9007 76.0073 71.6868 75.6872 71.5408 75.3349C71.3949 74.9826 71.3198 74.6049 71.3198 74.2236C71.3198 73.8423 71.3949 73.4646 71.5408 73.1123C71.6868 72.76 71.9007 72.4399 72.1703 72.1702C72.7149 71.6257 73.4535 71.3197 74.2237 71.3197C74.9938 71.3197 75.7324 71.6257 76.277 72.1702C76.8216 72.7148 77.1275 73.4534 77.1275 74.2236C77.1275 74.9938 76.8216 75.7324 76.277 76.2769Z" fill="#95A5A6"/>
<path id="Vector_3" fill-rule="evenodd" clip-rule="evenodd" d="M64.8 11.34L75.33 3.23999L81 8.90999L72.9 19.44H68.85L44.55 43.74L40.5 39.69L64.8 15.39V11.34Z" fill="#ECF0F1"/>
<path id="Vector_4" fill-rule="evenodd" clip-rule="evenodd" d="M42.5249 41.715L44.5499 43.74L68.8499 19.44H72.8999L80.9999 8.90995L78.1649 6.07495L42.5249 41.715Z" fill="#BDC3C7"/>
<path id="Vector_5" fill-rule="evenodd" clip-rule="evenodd" d="M34.433 37.337L35.1248 38.0214L4.672 68.1705C4.21866 68.6174 3.85867 69.15 3.61296 69.7373C3.36725 70.3246 3.24072 70.9549 3.24072 71.5915C3.24072 72.2281 3.36725 72.8584 3.61296 73.4457C3.85867 74.033 4.21866 74.5656 4.672 75.0125L8.81839 79.1176C10.7268 81.0065 13.0061 81.8117 14.9145 79.9227L46.1829 48.9678L46.8738 49.6522C47.6368 50.408 48.8753 50.408 49.6383 49.6522C50.4014 48.8965 50.4014 47.671 49.6383 46.9152L37.1976 34.6C36.4345 33.8443 35.196 33.8443 34.433 34.6C33.67 35.3557 33.6692 36.5813 34.433 37.337Z" fill="#D35400"/>
<path id="Vector_6" fill-rule="evenodd" clip-rule="evenodd" d="M40.7023 43.5376L6.96094 77.2789L8.81827 79.1185C10.7266 81.0074 13.006 81.8125 14.9143 79.9236L46.1585 48.9929L40.7023 43.5376Z" fill="#E66612"/>
</g>
<defs>
<clipPath id="clip0_134_2124">
<rect width="81" height="81" fill="white"/>
</clipPath>
</defs>
</svg>
