<svg width="52" height="52" viewBox="0 0 52 52" fill="none" xmlns="http://www.w3.org/2000/svg">
<g id="instagram-2-1-logo-svgrepo-com 1" clip-path="url(#clip0_40_2)">
<path id="Vector" d="M13.1858 51.8161C10.0934 51.6755 8.41347 51.1608 7.2961 50.725C5.81556 50.1485 4.76001 49.4624 3.64882 48.3527C2.53764 47.2431 1.84991 46.1875 1.27655 44.707C0.840729 43.5896 0.326091 41.9097 0.185455 38.8172C0.0309091 35.4744 0 34.4714 0 26.0023C0 17.5332 0.0340001 16.5318 0.183909 13.1858C0.324546 10.0934 0.842274 8.41656 1.275 7.2961C1.85146 5.81556 2.53919 4.76001 3.64728 3.64728C4.75692 2.53764 5.81246 1.84837 7.29456 1.275C8.41192 0.839183 10.0918 0.324546 13.1843 0.183909C16.5287 0.0309091 17.5332 0 25.9992 0C34.4683 0 35.4698 0.0340001 38.8157 0.183909C41.9082 0.324546 43.585 0.842274 44.7054 1.275C46.186 1.84837 47.2415 2.53764 48.3527 3.64728C49.4639 4.75692 50.1485 5.81401 50.725 7.29456C51.1608 8.41192 51.6755 10.0918 51.8161 13.1843C51.9691 16.5302 52 17.5317 52 26.0008C52 34.4668 51.9691 35.4713 51.8161 38.8172C51.6755 41.9097 51.1577 43.5896 50.725 44.707C50.1485 46.1875 49.4624 47.2431 48.3527 48.3527C47.2431 49.4624 46.186 50.1485 44.7054 50.725C43.5881 51.1608 41.9082 51.6755 38.8157 51.8161C35.4729 51.9691 34.4683 52 25.9992 52C17.5332 52 16.5287 51.9706 13.1858 51.8161Z" fill="url(#paint0_radial_40_2)"/>
<path id="Vector_2" d="M13.1858 51.8161C10.0934 51.6755 8.41347 51.1608 7.2961 50.725C5.81556 50.1485 4.76001 49.4624 3.64882 48.3527C2.53764 47.2431 1.84991 46.1875 1.27655 44.707C0.840729 43.5896 0.326091 41.9097 0.185455 38.8172C0.0309091 35.4744 0 34.4714 0 26.0023C0 17.5332 0.0340001 16.5318 0.183909 13.1858C0.324546 10.0934 0.842274 8.41656 1.275 7.2961C1.85146 5.81556 2.53919 4.76001 3.64728 3.64728C4.75692 2.53764 5.81246 1.84837 7.29456 1.275C8.41192 0.839183 10.0918 0.324546 13.1843 0.183909C16.5287 0.0309091 17.5332 0 25.9992 0C34.4683 0 35.4698 0.0340001 38.8157 0.183909C41.9082 0.324546 43.585 0.842274 44.7054 1.275C46.186 1.84837 47.2415 2.53764 48.3527 3.64728C49.4639 4.75692 50.1485 5.81401 50.725 7.29456C51.1608 8.41192 51.6755 10.0918 51.8161 13.1843C51.9691 16.5302 52 17.5317 52 26.0008C52 34.4668 51.9691 35.4713 51.8161 38.8172C51.6755 41.9097 51.1577 43.5896 50.725 44.707C50.1485 46.1875 49.4624 47.2431 48.3527 48.3527C47.2431 49.4624 46.186 50.1485 44.7054 50.725C43.5881 51.1608 41.9082 51.6755 38.8157 51.8161C35.4729 51.9691 34.4683 52 25.9992 52C17.5332 52 16.5287 51.9706 13.1858 51.8161Z" fill="url(#paint1_radial_40_2)"/>
<path id="Vector_3" d="M19.6157 26.1107C19.6157 22.5544 22.4979 19.6708 26.0541 19.6708C29.6104 19.6708 32.494 22.5544 32.494 26.1107C32.494 29.667 29.6104 32.5506 26.0541 32.5506C22.4979 32.5506 19.6157 29.667 19.6157 26.1107ZM16.1344 26.1107C16.1344 31.5893 20.5755 36.0304 26.0541 36.0304C31.5328 36.0304 35.9738 31.5893 35.9738 26.1107C35.9738 20.6321 31.5328 16.191 26.0541 16.191C20.5755 16.191 16.1346 20.6317 16.1346 26.1107M34.0485 15.7977C34.0483 16.2562 34.1841 16.7045 34.4386 17.0858C34.6932 17.4671 35.0551 17.7644 35.4787 17.94C35.9022 18.1156 36.3683 18.1617 36.818 18.0725C37.2677 17.9832 37.6809 17.7626 38.0052 17.4385C38.3295 17.1144 38.5505 16.7014 38.6401 16.2518C38.7297 15.8022 38.684 15.336 38.5087 14.9124C38.3334 14.4887 38.0365 14.1265 37.6553 13.8716C37.2742 13.6168 36.8261 13.4806 36.3676 13.4804H36.3666C35.7521 13.4807 35.1627 13.7249 34.7281 14.1594C34.2934 14.5939 34.049 15.1831 34.0485 15.7977ZM18.2496 41.8354C16.3661 41.7496 15.3424 41.4359 14.6621 41.1709C13.7602 40.8197 13.1166 40.4015 12.44 39.7259C11.7634 39.0502 11.3446 38.4073 10.995 37.5054C10.7298 36.8254 10.4161 35.8013 10.3305 33.9179C10.2368 31.8816 10.2181 31.2699 10.2181 26.111C10.2181 20.9521 10.2384 20.3421 10.3305 18.3041C10.4163 16.4207 10.7323 15.3987 10.995 14.7167C11.3462 13.8147 11.7644 13.1712 12.44 12.4946C13.1157 11.818 13.7586 11.3992 14.6621 11.0496C15.3421 10.7844 16.3661 10.4707 18.2496 10.3851C20.2859 10.2914 20.8975 10.2727 26.0541 10.2727C31.2107 10.2727 31.823 10.2926 33.861 10.3854C35.7444 10.4711 36.7665 10.7872 37.4485 11.0499C38.3504 11.3995 38.9939 11.8192 39.6705 12.4949C40.3471 13.1706 40.7644 13.815 41.1155 14.717C41.3807 15.397 41.6945 16.421 41.7801 18.3044C41.8737 20.3424 41.8924 20.9524 41.8924 26.1113C41.8924 31.2702 41.8737 31.8802 41.7801 33.9182C41.6943 35.8016 41.379 36.8254 41.1155 37.5057C40.7644 38.4076 40.3462 39.0511 39.6705 39.7262C38.9948 40.4012 38.3504 40.8201 37.4485 41.1712C36.7685 41.4364 35.7444 41.7501 33.861 41.8357C31.8247 41.9294 31.213 41.9481 26.0541 41.9481C20.8952 41.9481 20.2852 41.9294 18.2496 41.8357M18.0896 6.90947C16.0331 7.00313 14.6278 7.32922 13.4005 7.80676C12.1303 8.29992 11.0536 8.96153 9.97842 10.035C8.90325 11.1085 8.24334 12.1854 7.75018 13.4571C7.27264 14.6851 6.94655 16.0896 6.85289 18.1462C6.75769 20.206 6.7359 20.8645 6.7359 26.1107C6.7359 31.3569 6.75769 32.0154 6.85289 34.0752C6.94655 36.1319 7.27264 37.5363 7.75018 38.7643C8.24334 40.0345 8.9034 41.1134 9.97842 42.1864C11.0534 43.2594 12.1288 43.9201 13.4005 44.4146C14.6301 44.8922 16.0331 45.2183 18.0896 45.3119C20.1505 45.4056 20.8079 45.4289 26.0541 45.4289C31.3003 45.4289 31.9588 45.4071 34.0186 45.3119C36.0753 45.2183 37.4797 44.8922 38.7077 44.4146C39.9779 43.9201 41.0546 43.2599 42.1298 42.1864C43.205 41.1129 43.8635 40.0345 44.358 38.7643C44.8356 37.5363 45.1632 36.1318 45.2553 34.0752C45.349 32.0139 45.3708 31.3569 45.3708 26.1107C45.3708 20.8645 45.349 20.206 45.2553 18.1462C45.1617 16.0895 44.8356 14.6844 44.358 13.4571C43.8635 12.1869 43.2033 11.1102 42.1298 10.035C41.0563 8.95983 39.9779 8.29992 38.7092 7.80676C37.4797 7.32922 36.0752 7.00158 34.0202 6.90947C31.9601 6.81535 31.3019 6.79248 26.0564 6.79248C20.811 6.79248 20.1512 6.81427 18.0904 6.90947" fill="white"/>
</g>
<defs>
<radialGradient id="paint0_radial_40_2" cx="0" cy="0" r="1" gradientUnits="userSpaceOnUse" gradientTransform="translate(3.36539 50.8608) scale(66.0207)">
<stop offset="0.09" stop-color="#FA8F21"/>
<stop offset="0.78" stop-color="#D82D7E"/>
</radialGradient>
<radialGradient id="paint1_radial_40_2" cx="0" cy="0" r="1" gradientUnits="userSpaceOnUse" gradientTransform="translate(36.0186 49.1911) scale(58.0988)">
<stop offset="0.64" stop-color="#8C3AAA" stop-opacity="0"/>
<stop offset="1" stop-color="#8C3AAA"/>
</radialGradient>
<clipPath id="clip0_40_2">
<rect width="52" height="52" fill="white"/>
</clipPath>
</defs>
</svg>
