<svg width="85" height="85" viewBox="0 0 85 85" fill="none" xmlns="http://www.w3.org/2000/svg">
<g id="mastercard-svgrepo-com 1" clip-path="url(#clip0_95_1390)">
<g id="Group">
<path id="Vector" d="M15.3948 75.2952V70.9176C15.3948 69.2387 14.3731 68.1448 12.696 68.1448C11.8152 68.1448 10.8727 68.4372 10.2157 69.3779C9.70478 68.5746 8.98252 68.1448 7.88151 68.1448C7.47215 68.1271 7.06479 68.2111 6.69588 68.3894C6.32697 68.5678 6.00801 68.8347 5.76756 69.1665V68.2857H4.38116V75.2899H5.76756V71.2822C5.76756 70.0491 6.49687 69.4589 7.51861 69.4589C8.54035 69.4589 9.12345 70.116 9.12345 71.2822V75.2952H10.5098V71.2822C10.5098 70.0491 11.2392 69.4589 12.2609 69.4589C13.2826 69.4589 13.8657 70.116 13.8657 71.2822V75.2952H15.3948ZM38.1585 68.3632H35.6041V66.2493H34.2213V68.3632H32.7626V69.5963H34.2213V72.887C34.2213 74.4919 34.8044 75.4414 36.5554 75.4414C37.2188 75.4276 37.8688 75.2522 38.4492 74.9305L38.0105 73.6974C37.6169 73.9434 37.1604 74.0701 36.6963 74.0621C35.967 74.0621 35.6024 73.6234 35.6024 72.8941V69.54H38.1567V68.372L38.1585 68.3632ZM51.1452 68.1448C50.7676 68.1363 50.3942 68.2261 50.0617 68.4052C49.7291 68.5843 49.4487 68.8466 49.2479 69.1665V68.2857H47.8615V75.2899H49.2479V71.3562C49.2479 70.1882 49.831 69.4589 50.7805 69.4589C51.1009 69.4719 51.4188 69.521 51.7283 69.6051L52.1669 68.291C51.8324 68.2066 51.4899 68.1576 51.1452 68.1448ZM31.5189 68.8741C30.7896 68.3632 29.7679 68.1448 28.6739 68.1448C26.9229 68.1448 25.8289 68.9481 25.8289 70.3345C25.8289 71.5024 26.6322 72.1577 28.1631 72.3779L28.8924 72.4502C29.6957 72.5964 30.2065 72.8888 30.2065 73.2535C30.2065 73.7643 29.6234 74.1343 28.5277 74.1343C27.691 74.1515 26.8716 73.8954 26.1936 73.405L25.4643 74.4989C26.486 75.2282 27.7262 75.3797 28.459 75.3797C30.5025 75.3797 31.5965 74.432 31.5965 73.1178C31.5965 71.8847 30.7156 71.2945 29.1883 71.0743L28.459 71.0021C27.8019 70.9299 27.2259 70.7097 27.2259 70.2728C27.2259 69.7619 27.809 69.392 28.6123 69.392C29.4931 69.392 30.3633 69.7566 30.802 69.9751L31.5189 68.8741ZM52.6778 71.7931C52.6778 73.907 54.0642 75.4414 56.3261 75.4414C57.3478 75.4414 58.0772 75.223 58.8065 74.6381L58.0771 73.5441C57.5608 73.9623 56.9183 74.1939 56.2539 74.2012C55.0207 74.2012 54.0642 73.2535 54.0642 71.8671C54.0642 70.4807 55.0084 69.54 56.2539 69.54C56.9183 69.5473 57.5608 69.7789 58.0771 70.1971L58.8065 69.1031C58.0772 68.52 57.3478 68.2998 56.3261 68.2998C54.1364 68.1536 52.6778 69.6862 52.6778 71.8019V71.7931ZM42.9008 68.1448C40.8573 68.1448 39.4709 69.6034 39.4709 71.7931C39.4709 73.9828 40.9295 75.4414 43.0452 75.4414C44.0745 75.4631 45.0796 75.1283 45.8903 74.4936L45.1609 73.4719C44.5747 73.9262 43.8589 74.1817 43.1175 74.2012C42.1697 74.2012 41.148 73.6181 41.0035 72.3779H46.1844V71.7948C46.1844 69.6051 44.8703 68.1465 42.9008 68.1465V68.1448ZM42.8286 69.4589C43.8503 69.4589 44.5796 70.116 44.6518 71.21H40.8591C41.0775 70.1882 41.7399 69.4589 42.8286 69.4589ZM23.9316 71.7931V68.291H22.5452V69.1718C22.0344 68.5147 21.3121 68.15 20.2833 68.15C18.3138 68.15 16.8534 69.6827 16.8534 71.7984C16.8534 73.9141 18.3121 75.4467 20.2833 75.4467C21.3051 75.4467 22.0344 75.082 22.5452 74.4249V75.3058H23.9316V71.7931ZM18.3138 71.7931C18.3138 70.4789 19.1171 69.4589 20.5035 69.4589C21.8177 69.4589 22.6175 70.4807 22.6175 71.7931C22.6175 73.1795 21.7367 74.1272 20.5035 74.1272C19.1171 74.1995 18.3138 73.1055 18.3138 71.7931ZM72.2336 68.1448C71.8559 68.1363 71.4826 68.2261 71.15 68.4052C70.8175 68.5843 70.5371 68.8466 70.3363 69.1665V68.2857H68.9499V75.2899H70.3345V71.3562C70.3345 70.1882 70.9176 69.4589 71.8671 69.4589C72.1875 69.4719 72.5055 69.521 72.8149 69.6051L73.2535 68.291C72.919 68.2066 72.5765 68.1576 72.2318 68.1448H72.2336ZM66.8342 71.7931V68.291H65.4478V69.1718C64.9369 68.5147 64.2146 68.15 63.1859 68.15C61.2164 68.15 59.756 69.6827 59.756 71.7984C59.756 73.9141 61.2146 75.4467 63.1859 75.4467C64.2076 75.4467 64.9369 75.082 65.4478 74.4249V75.3058H66.8342V71.7931ZM61.2164 71.7931C61.2164 70.4789 62.0197 69.4589 63.4061 69.4589C64.7202 69.4589 65.52 70.4807 65.52 71.7931C65.52 73.1795 64.6392 74.1272 63.4061 74.1272C62.0197 74.1995 61.2164 73.1055 61.2164 71.7931ZM80.9166 71.7931V65.5182H79.5302V69.1665C79.0193 68.5094 78.297 68.1448 77.2683 68.1448C75.2988 68.1448 73.8384 69.6774 73.8384 71.7931C73.8384 73.9088 75.297 75.4414 77.2683 75.4414C78.29 75.4414 79.0193 75.0767 79.5302 74.4197V75.3005H80.9166V71.7931ZM75.2988 71.7931C75.2988 70.4789 76.1021 69.4589 77.4885 69.4589C78.8026 69.4589 79.6024 70.4807 79.6024 71.7931C79.6024 73.1795 78.7216 74.1272 77.4885 74.1272C76.1003 74.2012 75.297 73.1073 75.297 71.7931H75.2988Z" fill="white"/>
<g id="Group_2">
<path id="Vector_2" d="M55.2321 15.1746H29.9141V56.4705H55.2321V15.1746Z" fill="#FF5F00"/>
<path id="Vector_3" d="M32.4684 35.8226C32.4693 31.8499 33.3689 27.9288 35.0999 24.3531C36.8309 20.7773 39.3484 17.6395 42.4639 15.1746C38.5893 12.1282 33.9358 10.2335 29.0353 9.70706C24.1347 9.18058 19.1849 10.0436 14.7517 12.1974C10.3184 14.3512 6.58067 17.7089 3.96563 21.8867C1.35059 26.0645 -0.0361938 30.8938 -0.0361938 35.8226C-0.0361938 40.7513 1.35059 45.5806 3.96563 49.7584C6.58067 53.9362 10.3184 57.2939 14.7517 59.4477C19.1849 61.6015 24.1347 62.4645 29.0353 61.9381C33.9358 61.4116 38.5893 59.5169 42.4639 56.4705C39.3484 54.0056 36.8309 50.8678 35.0999 47.292C33.3689 43.7163 32.4693 39.7952 32.4684 35.8226Z" fill="#EB001B"/>
<path id="Vector_4" d="M85.0018 35.8226C85.0053 40.7477 83.6227 45.5745 81.0119 49.7507C78.4012 53.927 74.6677 57.2841 70.2386 59.4382C65.8095 61.5923 60.8635 62.4564 55.9664 61.9316C51.0693 61.4068 46.4188 59.5143 42.5467 56.4706C45.6629 54.0063 48.181 50.8686 49.9121 47.2927C51.6432 43.7168 52.5424 39.7955 52.5424 35.8226C52.5424 31.8497 51.6432 27.9284 49.9121 24.3525C48.181 20.7766 45.6629 17.6389 42.5467 15.1746C46.4188 12.1309 51.0693 10.2384 55.9664 9.71362C60.8635 9.1888 65.8095 10.0529 70.2386 12.2069C74.6677 14.361 78.4012 17.7182 81.0119 21.8945C83.6227 26.0707 85.0053 30.8974 85.0018 35.8226Z" fill="#F79E1B"/>
</g>
</g>
</g>
<defs>
<clipPath id="clip0_95_1390">
<rect width="85" height="85" fill="white"/>
</clipPath>
</defs>
</svg>
