<svg width="85" height="85" viewBox="0 0 85 85" fill="none" xmlns="http://www.w3.org/2000/svg">
<g id="visa-svgrepo-com (2) 1" clip-path="url(#clip0_95_1664)">
<g id="Group">
<path id="Vector" d="M78.7029 55.845L77.906 51.8606H69.0023L67.5856 55.8166L60.4492 55.8308C63.8466 47.6607 67.2513 39.4936 70.6633 31.3295C71.2442 29.9448 72.2748 29.24 73.7942 29.2471C74.9558 29.2577 76.8506 29.2577 79.4821 29.2506L85 55.8343L78.7029 55.845ZM71.0069 46.4029H76.7444L74.6017 36.4154L71.0069 46.4029ZM25.0042 29.2435L32.1796 29.2506L21.0871 55.8485L13.8231 55.8414C11.9965 48.8159 10.1926 41.7845 8.41146 34.7473C8.05729 33.3448 7.35604 32.3637 6.00667 31.8998C4.80604 31.4854 2.805 30.8479 0 29.9802V29.2541H11.4644C13.4477 29.2541 14.6058 30.2139 14.9777 32.1831C15.3531 34.1558 16.2952 39.1779 17.811 47.2493L25.0042 29.2435ZM42.0396 29.2506L36.3658 55.8414L29.5375 55.8343L35.2042 29.2435L42.0396 29.2506ZM55.8875 28.7583C57.931 28.7583 60.5058 29.3958 61.9863 29.9802L60.7892 35.4946C59.4504 34.9562 57.2475 34.2302 55.3952 34.255C52.7035 34.301 51.039 35.4308 51.039 36.5146C51.039 38.2783 53.929 39.1673 56.904 41.0939C60.3004 43.2898 60.7467 45.2625 60.7042 47.4052C60.6581 51.8535 56.904 56.2416 48.9848 56.2416C45.3723 56.1885 44.069 55.8839 41.1223 54.8391L42.369 49.0839C45.3688 50.3412 46.6402 50.7414 49.2044 50.7414C51.5525 50.7414 53.5677 49.7923 53.5854 48.1383C53.5996 46.9625 52.8771 46.3781 50.2421 44.926C47.6071 43.4704 43.9096 41.4552 43.9592 37.4106C44.0194 32.2327 48.9246 28.7583 55.891 28.7583H55.8875Z" fill="white"/>
</g>
</g>
<defs>
<clipPath id="clip0_95_1664">
<rect width="85" height="85" fill="white"/>
</clipPath>
</defs>
</svg>
