<svg width="52" height="52" viewBox="0 0 52 52" fill="none" xmlns="http://www.w3.org/2000/svg">
<g id="whatsapp-icon-logo-svgrepo-com 1" clip-path="url(#clip0_93_858)">
<path id="Vector" d="M51.997 38.8554C51.997 39.1401 51.9883 39.7576 51.9712 40.2346C51.9294 41.4017 51.8368 42.9077 51.6969 43.5938C51.4867 44.625 51.1692 45.5983 50.7554 46.4084C50.2657 47.3667 49.6411 48.2251 48.8988 48.9659C48.1583 49.7053 47.3007 50.3275 46.3438 50.8152C45.5295 51.2302 44.5501 51.5478 43.513 51.7571C42.8337 51.8943 41.339 51.985 40.1794 52.0263C39.7019 52.0433 39.0843 52.0519 38.8006 52.0519L13.1954 52.0478C12.9107 52.0478 12.2933 52.0391 11.8163 52.022C10.6492 51.9801 9.14322 51.8876 8.45702 51.7477C7.42585 51.5374 6.45253 51.22 5.64247 50.8061C4.68412 50.3164 3.82577 49.6918 3.08492 48.9496C2.34554 48.209 1.72337 47.3515 1.23572 46.3946C0.820634 45.5802 0.503048 44.6008 0.293677 43.5638C0.156567 42.8845 0.065821 41.3898 0.0245359 40.2301C0.00757495 39.7527 -0.00100708 39.1351 -0.00100708 38.8515L0.00305542 13.2462C0.00305542 12.9614 0.011739 12.344 0.0288523 11.867C0.0707468 10.6999 0.163219 9.19391 0.303122 8.50776C0.513407 7.47659 0.83079 6.50327 1.24471 5.69316C1.73439 4.73486 2.35905 3.87646 3.10122 3.13561C3.84181 2.39628 4.69941 1.77406 5.65628 1.28636C6.47066 0.871374 7.45008 0.553788 8.48708 0.344417C9.16638 0.207257 10.6611 0.116511 11.8208 0.0752764C12.2982 0.0582646 12.9159 0.0496826 13.1994 0.0496826L38.8047 0.0537959C39.0895 0.0537959 39.7069 0.0624795 40.1839 0.0795928C41.351 0.121487 42.8569 0.21396 43.5432 0.353862C44.5743 0.564147 45.5476 0.88153 46.3577 1.29545C47.316 1.78513 48.1744 2.40979 48.9152 3.15196C49.6545 3.89255 50.2767 4.7501 50.7644 5.70702C51.1795 6.5214 51.4971 7.50077 51.7064 8.53777C51.8436 9.21712 51.9342 10.7118 51.9756 11.8715C51.9926 12.349 52.0012 12.9666 52.0012 13.2502L51.997 38.8554Z" fill="url(#paint0_linear_93_858)"/>
<g id="Group">
<path id="Vector_2" d="M39.777 12.3524C36.2564 8.82883 31.5744 6.88736 26.586 6.88538C16.3077 6.88538 7.94248 15.2474 7.93837 25.5258C7.93705 28.8112 8.79571 32.0183 10.4275 34.8452L7.78201 44.5053L17.6673 41.9131C20.391 43.3981 23.4575 44.1807 26.5785 44.1821H26.5862C36.8634 44.1821 45.2294 35.819 45.2336 25.5406C45.2356 20.5596 43.2978 15.8759 39.777 12.3524ZM26.5862 41.0337H26.5799C23.7987 41.0326 21.071 40.2857 18.6913 38.874L18.1253 38.5382L12.2592 40.0766L13.825 34.359L13.4564 33.7728C11.9049 31.3059 11.0855 28.4545 11.0867 25.527C11.0901 16.9841 18.043 10.0338 26.5922 10.0338C30.7319 10.0354 34.6235 11.6492 37.5497 14.5778C40.476 17.5064 42.0866 21.3994 42.0851 25.5394C42.0817 34.083 35.1289 41.0337 26.5862 41.0337ZM35.0878 29.4294C34.6217 29.1963 32.331 28.0694 31.9039 27.9139C31.4769 27.7584 31.1663 27.6808 30.8555 28.1471C30.545 28.6134 29.6521 29.6626 29.3802 29.9734C29.1084 30.2843 28.8366 30.3232 28.3707 30.09C27.9047 29.8569 26.4034 29.365 24.6238 27.7782C23.2387 26.5432 22.3035 25.0177 22.0317 24.5514C21.76 24.085 22.0028 23.833 22.2361 23.6007C22.4457 23.3921 22.702 23.0567 22.935 22.7847C23.1679 22.5128 23.2456 22.3184 23.4009 22.0076C23.5562 21.6967 23.4785 21.4247 23.3621 21.1915C23.2456 20.9584 22.3137 18.6657 21.9255 17.7331C21.5473 16.8248 21.1631 16.9477 20.8771 16.9335C20.6056 16.92 20.2947 16.9171 19.9841 16.9171C19.6735 16.9171 19.1687 17.0337 18.7416 17.5C18.3146 17.9663 17.1109 19.0932 17.1109 21.3858C17.1109 23.6784 18.7804 25.8934 19.0134 26.2042C19.2464 26.5151 22.2989 31.2199 26.9729 33.2375C28.0846 33.7174 28.9525 34.004 29.6292 34.2187C30.7453 34.5731 31.7611 34.5231 32.564 34.4032C33.4591 34.2695 35.3206 33.2764 35.709 32.1884C36.0972 31.1003 36.0972 30.1678 35.9807 29.9735C35.8642 29.7792 35.5537 29.6626 35.0878 29.4294Z" fill="white"/>
</g>
</g>
<defs>
<linearGradient id="paint0_linear_93_858" x1="26.0001" y1="0.0496826" x2="26.0001" y2="52.052" gradientUnits="userSpaceOnUse">
<stop stop-color="#61FD7D"/>
<stop offset="1" stop-color="#2BB826"/>
</linearGradient>
<clipPath id="clip0_93_858">
<rect width="52" height="52" fill="white"/>
</clipPath>
</defs>
</svg>
