<svg width="61" height="61" viewBox="0 0 61 61" fill="none" xmlns="http://www.w3.org/2000/svg">
<g id="24-hours-commerce-and-shopping-svgrepo-com 1" clip-path="url(#clip0_36_10)">
<g id="Group">
<g id="Group_2">
<path id="Vector" d="M57.0218 49.0653V45.087H3.97821V49.0653H21.2174V57.0218H13.2608V61.0001H47.739V57.0218H39.7825V49.0653H57.0218ZM35.8044 57.0218H25.1957V49.0653H35.8044V57.0218Z" fill="black"/>
</g>
</g>
<g id="Group_3">
<g id="Group_4">
<path id="Vector_2" d="M57.0218 3.97822V0H3.97822V3.97822H0V45.0869H3.97822V41.1086H57.0217V45.0869H61V3.97822H57.0218ZM27.8478 22.5434H18.5652V26.5217H27.8478V30.5H14.587V18.5652H23.8696V14.587H14.587V10.6088H27.8478V22.5434ZM46.413 30.5H42.4348V22.5434H31.826V10.6088H35.8043V18.5653H42.4347V10.6088H46.4129V30.5H46.413Z" fill="black"/>
</g>
</g>
</g>
<defs>
<clipPath id="clip0_36_10">
<rect width="61" height="61" fill="white"/>
</clipPath>
</defs>
</svg>
