<svg width="61" height="61" viewBox="0 0 61 61" fill="none" xmlns="http://www.w3.org/2000/svg">
<g id="barcode-scan-svgrepo-com 1" clip-path="url(#clip0_37_91)">
<g id="Group">
<g id="Group_2">
<path id="Vector" d="M3.97822 5.30432H0V47.7391H3.97822V5.30432Z" fill="black"/>
</g>
</g>
<g id="Group_3">
<g id="Group_4">
<path id="Vector_2" d="M61 5.30432H57.0218V39.7825H61V5.30432Z" fill="black"/>
</g>
</g>
<g id="Group_5">
<g id="Group_6">
<path id="Vector_3" d="M13.2608 5.30432H9.28259V39.7825H13.2608V5.30432Z" fill="black"/>
</g>
</g>
<g id="Group_7">
<g id="Group_8">
<path id="Vector_4" d="M13.2608 43.7609H9.28259V47.7391H13.2608V43.7609Z" fill="black"/>
</g>
</g>
<g id="Group_9">
<g id="Group_10">
<path id="Vector_5" d="M22.5434 5.30432H18.5652V21.2173H22.5434V5.30432Z" fill="black"/>
</g>
</g>
<g id="Group_11">
<g id="Group_12">
<path id="Vector_6" d="M22.5434 43.7609H18.5652V47.7391H22.5434V43.7609Z" fill="black"/>
</g>
</g>
<g id="Group_13">
<g id="Group_14">
<path id="Vector_7" d="M33.1522 5.30432H29.174V13.2609H33.1522V5.30432Z" fill="black"/>
</g>
</g>
<g id="Group_15">
<g id="Group_16">
<path id="Vector_8" d="M42.4348 5.30432H38.4565V13.2609H42.4348V5.30432Z" fill="black"/>
</g>
</g>
<g id="Group_17">
<g id="Group_18">
<path id="Vector_9" d="M51.7174 5.30432H47.7392V13.2609H51.7174V5.30432Z" fill="black"/>
</g>
</g>
<g id="Group_19">
<g id="Group_20">
<path id="Vector_10" d="M57.0218 47.7391V43.7609H53.0436V25.1956H49.0654V21.2174H45.0871V17.2391H30.5V21.2174H26.5218V25.1956H22.5436V39.7826H26.5218V43.7608H30.5V47.739H49.0652V51.7172H53.0435V55.6955H61V47.7389H57.0218V47.7391ZM45.087 39.7826H30.5V25.1956H45.087V39.7826Z" fill="black"/>
</g>
</g>
</g>
<defs>
<clipPath id="clip0_37_91">
<rect width="61" height="61" fill="white"/>
</clipPath>
</defs>
</svg>
