<svg width="61" height="61" viewBox="0 0 61 61" fill="none" xmlns="http://www.w3.org/2000/svg">
<g id="gift-birthday-and-party-svgrepo-com 1">
<g id="Group">
<g id="Group_2">
<path id="Vector" d="M28.5108 30.5H5.9674V61H28.5108V30.5Z" fill="black"/>
</g>
</g>
<g id="Group_3">
<g id="Group_4">
<path id="Vector_2" d="M55.0326 30.5H32.4892V61H55.0326V30.5Z" fill="black"/>
</g>
</g>
<g id="Group_5">
<g id="Group_6">
<path id="Vector_3" d="M51.0544 14.587V3.97827H47.076V14.587H32.4892V26.5218H59.0108V14.587H51.0544Z" fill="black"/>
</g>
</g>
<g id="Group_7">
<g id="Group_8">
<path id="Vector_4" d="M32.4891 7.95654H28.5108V14.587H32.4891V7.95654Z" fill="black"/>
</g>
</g>
<g id="Group_9">
<g id="Group_10">
<path id="Vector_5" d="M13.924 14.587V3.97827H9.94562V14.587H1.98917V26.5218H28.5108V14.587H13.924Z" fill="black"/>
</g>
</g>
<g id="Group_11">
<g id="Group_12">
<path id="Vector_6" d="M24.5326 0H13.924V3.97822H24.5326V0Z" fill="black"/>
</g>
</g>
<g id="Group_13">
<g id="Group_14">
<path id="Vector_7" d="M47.076 0H36.4674V3.97822H47.076V0Z" fill="black"/>
</g>
</g>
<g id="Group_15">
<g id="Group_16">
<path id="Vector_8" d="M28.5108 3.97827H24.5326V7.9565H28.5108V3.97827Z" fill="black"/>
</g>
</g>
<g id="Group_17">
<g id="Group_18">
<path id="Vector_9" d="M36.4674 3.97827H32.4892V7.9565H36.4674V3.97827Z" fill="black"/>
</g>
</g>
</g>
</svg>
