<svg width="188" height="188" viewBox="0 0 188 188" fill="none" xmlns="http://www.w3.org/2000/svg">
<g id="cpu-setting-svgrepo-com 1">
<path id="Vector" opacity="0.4" d="M156.667 70.4999V93.3733L150.557 89.8483C145.543 86.9499 139.277 87.8116 135.203 91.7283C134.342 92.5116 133.637 93.4516 133.01 94.4699L132.54 95.3316C131.678 96.8199 130.973 97.2116 130.895 97.2899C130.738 97.2116 129.955 96.8199 129.093 95.2533L128.623 94.4699C126.9 91.4933 124.158 89.4566 120.868 88.5949C117.5 87.6549 114.053 88.1249 111.155 89.8483L104.027 93.9999C100.815 95.8016 98.5433 98.7783 97.6033 102.303C96.6633 105.907 97.1333 109.588 98.935 112.8C99.7967 114.21 99.7967 115.072 99.7967 115.228C99.7183 115.307 98.935 115.777 97.2117 115.777C89.6133 115.777 83.425 121.965 83.425 129.485V136.848C83.425 144.368 89.6133 150.557 97.2117 150.557C98.935 150.557 99.7183 151.027 99.7183 151.105C99.7967 151.183 99.7967 152.123 98.935 153.533C98.3867 154.552 97.9167 155.57 97.6817 156.667H70.5C48.88 156.667 31.3333 139.12 31.3333 117.5V70.4999C31.3333 48.8799 48.88 31.3333 70.5 31.3333H117.5C139.12 31.3333 156.667 48.8799 156.667 70.4999Z" fill="#0A84FF"/>
<path id="Vector_2" d="M135.205 76.2966V91.7284C134.343 92.5117 133.638 93.4517 133.012 94.47L132.542 95.3317C131.68 96.82 130.975 97.2117 130.897 97.29C130.74 97.2117 129.957 96.82 129.095 95.2534L128.625 94.47C126.902 91.4934 124.16 89.4567 120.87 88.595C117.502 87.655 114.055 88.125 111.157 89.8484L104.028 94C100.817 95.8017 98.5449 98.7784 97.6049 102.303C96.6649 105.907 97.1349 109.588 98.9366 112.8C99.7982 114.21 99.7982 115.072 99.7982 115.228C99.7199 115.307 98.9366 115.777 97.2132 115.777C89.6149 115.777 83.4266 121.965 83.4266 129.485V135.203H76.2985C63.3735 135.203 52.7985 124.628 52.7985 111.703V76.2966C52.7985 63.3716 63.3735 52.7966 76.2985 52.7966H111.705C124.63 52.7966 135.205 63.3716 135.205 76.2966Z" fill="#02162F"/>
<path id="Vector_3" d="M70.9743 21.5417V31.3334H70.5043C66.5876 31.3334 62.8276 31.8817 59.2243 32.9784V21.5417C59.2243 18.3301 61.8093 15.6667 65.0993 15.6667C68.311 15.6667 70.9743 18.3301 70.9743 21.5417Z" fill="#02162F"/>
<path id="Vector_4" d="M99.875 21.5417V31.3334H88.125V21.5417C88.125 18.3301 90.7883 15.6667 94 15.6667C97.2117 15.6667 99.875 18.3301 99.875 21.5417Z" fill="#02162F"/>
<path id="Vector_5" d="M128.852 21.5417V32.9784C125.249 31.8817 121.41 31.3334 117.494 31.3334H117.102V21.5417C117.102 18.3301 119.765 15.6667 122.977 15.6667C126.189 15.6667 128.852 18.3301 128.852 21.5417Z" fill="#02162F"/>
<path id="Vector_6" d="M172.326 65.0171C172.326 68.3071 169.741 70.8921 166.451 70.8921H156.66V70.5004C156.66 66.5838 156.111 62.7454 155.015 59.1421H166.451C169.741 59.1421 172.326 61.8054 172.326 65.0171Z" fill="#02162F"/>
<path id="Vector_7" d="M70.9743 156.667V166.458C70.9743 169.67 68.311 172.333 65.0993 172.333C61.8093 172.333 59.2243 169.67 59.2243 166.458V155.022C62.8276 156.118 66.5876 156.667 70.5043 156.667H70.9743Z" fill="#02162F"/>
<path id="Vector_8" d="M32.9783 59.1421C31.8817 62.7454 31.3333 66.5838 31.3333 70.5004V70.8921H21.5417C18.33 70.8921 15.6667 68.3071 15.6667 65.0171C15.6667 61.8054 18.33 59.1421 21.5417 59.1421H32.9783Z" fill="#02162F"/>
<path id="Vector_9" d="M31.3333 88.125V99.875H21.5417C18.33 99.875 15.6667 97.2117 15.6667 94C15.6667 90.71 18.33 88.125 21.5417 88.125H31.3333Z" fill="#02162F"/>
<path id="Vector_10" d="M32.9783 128.858H21.5417C18.33 128.858 15.6667 126.195 15.6667 122.983C15.6667 119.693 18.33 117.108 21.5417 117.108H31.3333V117.5C31.3333 121.417 31.8817 125.255 32.9783 128.858Z" fill="#02162F"/>
<path id="Vector_11" opacity="0.4" d="M164.425 121.652C159.098 121.652 156.043 118.988 156.043 115.072C156.043 113.505 156.513 111.703 157.61 109.823C159.803 106.063 158.471 101.207 154.711 99.0916L147.583 94.94C144.293 92.9816 140.063 94.1566 138.105 97.4466L137.635 98.23C133.875 104.732 127.765 104.732 124.005 98.23L123.535 97.4466C121.655 94.1566 117.346 92.9816 114.135 94.94L106.928 99.0916C104.421 100.502 102.933 103.165 102.933 105.907C102.933 107.238 103.325 108.57 104.03 109.823C105.126 111.703 105.675 113.505 105.675 115.072C105.675 118.988 102.541 121.652 97.2148 121.652C92.9065 121.652 89.3031 125.177 89.3031 129.485V136.848C89.3031 141.157 92.9065 144.682 97.2148 144.682C102.541 144.682 105.675 147.345 105.675 151.262C105.675 152.828 105.126 154.63 104.03 156.51C101.836 160.27 103.168 165.127 106.928 167.242L114.135 171.393C117.346 173.352 121.655 172.177 123.535 168.887L124.005 168.103C127.765 161.602 133.875 161.602 137.635 168.103L138.105 168.887C140.063 172.177 144.293 173.352 147.583 171.393L154.711 167.242C157.218 165.832 158.706 163.168 158.706 160.427C158.706 159.095 158.315 157.763 157.61 156.51C156.513 154.63 156.043 152.828 156.043 151.262C156.043 147.345 159.098 144.682 164.425 144.682C168.811 144.682 172.336 141.157 172.336 136.848V129.485C172.336 125.177 168.811 121.652 164.425 121.652ZM130.82 146.64C123.378 146.64 117.346 140.608 117.346 133.167C117.346 125.725 123.378 119.693 130.82 119.693C138.261 119.693 144.293 125.725 144.293 133.167C144.293 140.608 138.261 146.64 130.82 146.64Z" fill="#0A84FF"/>
<path id="Vector_12" d="M144.294 133.167C144.294 140.608 138.262 146.64 130.821 146.64C123.379 146.64 117.347 140.608 117.347 133.167C117.347 125.725 123.379 119.693 130.821 119.693C138.262 119.693 144.294 125.725 144.294 133.167Z" fill="#02162F"/>
</g>
</svg>
