<svg width="61" height="61" viewBox="0 0 61 61" fill="none" xmlns="http://www.w3.org/2000/svg">
<g id="first-first-place-svgrepo-com 1">
<g id="Group">
<g id="Group_2">
<path id="Vector" d="M49.0652 11.9348V3.97822H41.1086V0H19.8914V3.97822H11.9348V11.9348H7.95657V33.1522H11.9348V61H19.8914V57.0218H15.9131V41.1086H19.8914V45.0869H41.1088V41.1086H45.087V57.0217H41.1088V61H49.0653V33.1522H53.0436V11.9348H49.0652ZM33.1522 33.1522H29.174V15.913H25.1957V11.9348H33.1523V33.1522H33.1522Z" fill="black"/>
</g>
</g>
<g id="Group_3">
<g id="Group_4">
<path id="Vector_2" d="M23.8696 53.0435H19.8914V57.0217H23.8696V53.0435Z" fill="black"/>
</g>
</g>
<g id="Group_5">
<g id="Group_6">
<path id="Vector_3" d="M37.1304 57.0217H33.1522V61H37.1304V57.0217Z" fill="black"/>
</g>
</g>
<g id="Group_7">
<g id="Group_8">
<path id="Vector_4" d="M27.8478 57.0217H23.8696V61H27.8478V57.0217Z" fill="black"/>
</g>
</g>
<g id="Group_9">
<g id="Group_10">
<path id="Vector_5" d="M33.1522 53.0435H27.8478V57.0217H33.1522V53.0435Z" fill="black"/>
</g>
</g>
<g id="Group_11">
<g id="Group_12">
<path id="Vector_6" d="M41.1087 53.0435H37.1304V57.0217H41.1087V53.0435Z" fill="black"/>
</g>
</g>
</g>
</svg>
