<svg width="61" height="61" viewBox="0 0 61 61" fill="none" xmlns="http://www.w3.org/2000/svg">
<g id="guarantee-svgrepo-com 1">
<g id="Group">
<g id="Group_2">
<path id="Vector" d="M55.6956 7.95657V3.97822H51.7174V0H9.28262V3.97822H5.30439V7.95645H1.32605V37.1304H5.30427V45.087H9.2825V49.0652H13.2607V53.0434H17.2389V57.0217H25.1955V61H35.8042V57.0218H43.7607V53.0435H47.7389V49.0653H51.7172V45.0871H55.6954V37.1305H59.6736V7.95657H55.6956ZM47.7392 22.5434H43.761V26.5217H39.7827V30.5H35.8045V34.4782H31.826V38.4565H27.8478V42.4347H22.5434V38.4565H18.5652V34.4782H14.587V26.5217H22.5436V30.5H27.8479V26.5218H31.8262V22.5436H35.8044V18.5653H39.7826V14.5871H47.7392V22.5434Z" fill="black"/>
</g>
</g>
</g>
</svg>
