<svg width="61" height="61" viewBox="0 0 61 61" fill="none" xmlns="http://www.w3.org/2000/svg">
<g id="support-svgrepo-com 1" clip-path="url(#clip0_80_930)">
<g id="Group">
<g id="Group_2">
<path id="Vector" d="M12.5982 7.95654H8.61994V11.9348H12.5982V7.95654Z" fill="black"/>
</g>
</g>
<g id="Group_3">
<g id="Group_4">
<path id="Vector_2" d="M16.5763 3.97827H12.598V7.9565H16.5763V3.97827Z" fill="black"/>
</g>
</g>
<g id="Group_5">
<g id="Group_6">
<path id="Vector_3" d="M44.4237 0H16.5763V3.97822H44.4237V0Z" fill="black"/>
</g>
</g>
<g id="Group_7">
<g id="Group_8">
<path id="Vector_4" d="M48.402 3.97827H44.4237V7.9565H48.402V3.97827Z" fill="black"/>
</g>
</g>
<g id="Group_9">
<g id="Group_10">
<path id="Vector_5" d="M52.3802 7.95654H48.402V11.9348H52.3802V7.95654Z" fill="black"/>
</g>
</g>
<g id="Group_11">
<g id="Group_12">
<path id="Vector_6" d="M4.64172 25.1953H0.663494V33.1518H4.64172V25.1953Z" fill="black"/>
</g>
</g>
<g id="Group_13">
<g id="Group_14">
<path id="Vector_7" d="M60.3365 25.1953H56.3583V33.1518H60.3365V25.1953Z" fill="black"/>
</g>
</g>
<g id="Group_15">
<g id="Group_16">
<path id="Vector_8" d="M12.5982 45.0862H8.61994V49.0644H12.5982V45.0862Z" fill="black"/>
</g>
</g>
<g id="Group_17">
<g id="Group_18">
<path id="Vector_9" d="M56.3589 25.1954V11.9346H52.3807V21.2171H48.4035V15.9137H48.4024V15.9129H44.4242V11.9346H40.4462V7.95654H20.5553V11.9348H16.5769V15.9139H12.5997V21.2173H8.62042V11.9348H4.64219V25.1955H12.5996V33.1519H4.64219V45.0865H8.62042V37.1309H16.5769V41.1083H20.5533V45.0865H28.5114V53.0429H20.5533V45.0865H16.5769V49.0647H12.5986V53.0439H8.62185L8.62042 61.0001H52.3807V53.0436V53.0426H48.403V49.0649H48.4026V49.0646H44.4244V45.0864H44.4243H40.4463V41.1081H44.4243V37.1307H56.3589V33.1517H48.4035V25.1952H56.3589V25.1954ZM20.555 19.891H24.5332V25.1952H20.555V19.891ZM40.446 33.1517H36.4678V37.1309H24.5332V33.1517H20.555V29.1735H24.5332V33.1517H36.4678V29.1735H40.446V33.1517ZM40.446 25.1952H36.4678V19.891H40.446V25.1952Z" fill="black"/>
</g>
</g>
</g>
<defs>
<clipPath id="clip0_80_930">
<rect width="61" height="61" fill="white"/>
</clipPath>
</defs>
</svg>
